M48
;DRILL file {KiCad 4.0.4-stable} date 11/10/16 15:29:43
;FORMAT={-:-/ absolute / inch / decimal}
FMAT,2
INCH,TZ
T1C0.012
T2C0.013
T3C0.020
T4C0.022
T5C0.024
T6C0.026
T7C0.040
T8C0.043
%
G90
G05
M72
T1
X5.2465Y-5.089
X5.2547Y-5.1677
X5.2591Y-5.2268
X5.2769Y-4.8468
X5.3268Y-5.1835
X5.3598Y-5.011
X5.3598Y-5.2276
X5.375Y-4.6386
X5.4008Y-4.1083
X5.4008Y-4.2051
X5.402Y-3.915
X5.402Y-4.0118
X5.4043Y-4.3224
X5.4043Y-4.4126
X5.4043Y-4.5055
X5.4094Y-4.6557
X5.4098Y-5.1827
X5.4819Y-4.622
X5.5149Y-4.7148
X5.5299Y-4.672
X5.6421Y-4.6898
X5.6469Y-3.8818
X5.6469Y-3.9418
X5.6469Y-4.0818
X5.6469Y-4.1418
X5.6469Y-4.2818
X5.6469Y-4.3418
X5.6469Y-4.4818
X5.6469Y-4.5418
X5.6575Y-4.0118
X5.6575Y-4.2118
X5.6575Y-4.4118
X5.6575Y-4.6118
X5.6575Y-5.0165
X5.6819Y-3.9118
X5.6819Y-4.1118
X5.6819Y-4.3118
X5.6819Y-4.5118
X5.7067Y-5.0697
X5.7169Y-3.8818
X5.7169Y-3.9418
X5.7169Y-4.0818
X5.7169Y-4.1418
X5.7169Y-4.2818
X5.7169Y-4.3418
X5.7169Y-4.4818
X5.7169Y-4.5418
X5.7225Y-4.6514
X5.7642Y-5.1276
X5.7966Y-4.3515
X5.7969Y-4.1315
X5.7969Y-3.9418
X5.7984Y-4.989
X5.8319Y-4.381
X5.8319Y-4.5768
X5.8331Y-4.0169
X5.8335Y-4.1758
X5.9189Y-5.1476
X5.9469Y-3.8374
X5.948Y-3.9339
X5.9486Y-5.003
X5.969Y-4.492
X5.969Y-4.6425
X5.9705Y-4.58
X5.9745Y-4.1375
X5.9745Y-4.2215
X5.976Y-4.314
X5.9775Y-4.4325
X6.0535Y-4.8154
X6.1256Y-4.7689
X6.1256Y-4.8646
X6.1575Y-5.3181
T2
X5.985Y-5.1783
X5.985Y-5.2374
X6.0441Y-5.1783
X6.0441Y-5.2374
X6.1031Y-5.1783
X6.1031Y-5.2374
T5
X5.8764Y-3.8358
X5.8764Y-3.8858
X5.8764Y-3.9358
T6
X5.9396Y-4.9025
X6.0184Y-4.9025
T7
X5.4919Y-3.7268
X5.5919Y-3.7268
X5.6919Y-3.7268
X5.7919Y-3.7268
X5.8919Y-3.7268
X6.039Y-3.7331
X6.039Y-3.8331
X6.039Y-3.9331
T8
X5.3469Y-3.8618
X5.3469Y-3.9618
X5.3469Y-4.0618
X5.3469Y-4.1618
X5.3469Y-4.2618
X5.3469Y-4.3618
X5.3469Y-4.4618
X5.3469Y-4.5618
X6.052Y-4.0689
X6.052Y-4.1689
X6.052Y-4.2689
X6.052Y-4.3689
X6.052Y-4.4689
X6.052Y-4.5689
X6.052Y-4.6689
T3
X5.5551Y-5.3206G85X5.5551Y-5.295
G05
X5.8307Y-5.3206G85X5.8307Y-5.295
G05
T4
X5.5885Y-5.2015G85X5.6004Y-5.2015
G05
X5.7854Y-5.2015G85X5.7972Y-5.2015
G05
T0
M30
