G04 #@! TF.FileFunction,Legend,Bot*
%FSLAX46Y46*%
G04 Gerber Fmt 4.6, Leading zero omitted, Abs format (unit mm)*
G04 Created by KiCad (PCBNEW 4.0.4-stable) date 11/10/16 21:54:05*
%MOMM*%
%LPD*%
G01*
G04 APERTURE LIST*
%ADD10C,0.100000*%
%ADD11C,0.200000*%
%ADD12C,0.150000*%
%ADD13C,0.010000*%
G04 APERTURE END LIST*
D10*
D11*
X141908095Y-115315715D02*
X141908095Y-114858572D01*
X141108095Y-115087143D02*
X141908095Y-115087143D01*
X141108095Y-114591905D02*
X141908095Y-114591905D01*
X141108095Y-114249048D02*
X141527143Y-114249048D01*
X141603333Y-114287143D01*
X141641429Y-114363333D01*
X141641429Y-114477619D01*
X141603333Y-114553810D01*
X141565238Y-114591905D01*
X141146190Y-113563333D02*
X141108095Y-113639523D01*
X141108095Y-113791904D01*
X141146190Y-113868095D01*
X141222381Y-113906190D01*
X141527143Y-113906190D01*
X141603333Y-113868095D01*
X141641429Y-113791904D01*
X141641429Y-113639523D01*
X141603333Y-113563333D01*
X141527143Y-113525238D01*
X141450952Y-113525238D01*
X141374762Y-113906190D01*
X141108095Y-112572857D02*
X141908095Y-112572857D01*
X141146190Y-111849048D02*
X141108095Y-111925238D01*
X141108095Y-112077619D01*
X141146190Y-112153810D01*
X141184286Y-112191905D01*
X141260476Y-112230000D01*
X141489048Y-112230000D01*
X141565238Y-112191905D01*
X141603333Y-112153810D01*
X141641429Y-112077619D01*
X141641429Y-111925238D01*
X141603333Y-111849048D01*
X141108095Y-111163334D02*
X141527143Y-111163334D01*
X141603333Y-111201429D01*
X141641429Y-111277619D01*
X141641429Y-111430000D01*
X141603333Y-111506191D01*
X141146190Y-111163334D02*
X141108095Y-111239524D01*
X141108095Y-111430000D01*
X141146190Y-111506191D01*
X141222381Y-111544286D01*
X141298571Y-111544286D01*
X141374762Y-111506191D01*
X141412857Y-111430000D01*
X141412857Y-111239524D01*
X141450952Y-111163334D01*
X141108095Y-110782381D02*
X141641429Y-110782381D01*
X141489048Y-110782381D02*
X141565238Y-110744286D01*
X141603333Y-110706190D01*
X141641429Y-110630000D01*
X141641429Y-110553809D01*
X141641429Y-109944286D02*
X141108095Y-109944286D01*
X141641429Y-110287143D02*
X141222381Y-110287143D01*
X141146190Y-110249048D01*
X141108095Y-110172857D01*
X141108095Y-110058571D01*
X141146190Y-109982381D01*
X141184286Y-109944286D01*
X141146190Y-109601428D02*
X141108095Y-109525238D01*
X141108095Y-109372857D01*
X141146190Y-109296666D01*
X141222381Y-109258571D01*
X141260476Y-109258571D01*
X141336667Y-109296666D01*
X141374762Y-109372857D01*
X141374762Y-109487142D01*
X141412857Y-109563333D01*
X141489048Y-109601428D01*
X141527143Y-109601428D01*
X141603333Y-109563333D01*
X141641429Y-109487142D01*
X141641429Y-109372857D01*
X141603333Y-109296666D01*
X141108095Y-108306190D02*
X141908095Y-108306190D01*
X141908095Y-108001428D01*
X141870000Y-107925237D01*
X141831905Y-107887142D01*
X141755714Y-107849047D01*
X141641429Y-107849047D01*
X141565238Y-107887142D01*
X141527143Y-107925237D01*
X141489048Y-108001428D01*
X141489048Y-108306190D01*
X141108095Y-107506190D02*
X141641429Y-107506190D01*
X141489048Y-107506190D02*
X141565238Y-107468095D01*
X141603333Y-107429999D01*
X141641429Y-107353809D01*
X141641429Y-107277618D01*
X141108095Y-106896666D02*
X141146190Y-106972857D01*
X141184286Y-107010952D01*
X141260476Y-107049047D01*
X141489048Y-107049047D01*
X141565238Y-107010952D01*
X141603333Y-106972857D01*
X141641429Y-106896666D01*
X141641429Y-106782380D01*
X141603333Y-106706190D01*
X141565238Y-106668095D01*
X141489048Y-106629999D01*
X141260476Y-106629999D01*
X141184286Y-106668095D01*
X141146190Y-106706190D01*
X141108095Y-106782380D01*
X141108095Y-106896666D01*
X141641429Y-106287142D02*
X140955714Y-106287142D01*
X140879524Y-106325237D01*
X140841429Y-106401428D01*
X140841429Y-106439523D01*
X141908095Y-106287142D02*
X141870000Y-106325237D01*
X141831905Y-106287142D01*
X141870000Y-106249047D01*
X141908095Y-106287142D01*
X141831905Y-106287142D01*
X141146190Y-105601428D02*
X141108095Y-105677618D01*
X141108095Y-105829999D01*
X141146190Y-105906190D01*
X141222381Y-105944285D01*
X141527143Y-105944285D01*
X141603333Y-105906190D01*
X141641429Y-105829999D01*
X141641429Y-105677618D01*
X141603333Y-105601428D01*
X141527143Y-105563333D01*
X141450952Y-105563333D01*
X141374762Y-105944285D01*
X141146190Y-104877619D02*
X141108095Y-104953809D01*
X141108095Y-105106190D01*
X141146190Y-105182381D01*
X141184286Y-105220476D01*
X141260476Y-105258571D01*
X141489048Y-105258571D01*
X141565238Y-105220476D01*
X141603333Y-105182381D01*
X141641429Y-105106190D01*
X141641429Y-104953809D01*
X141603333Y-104877619D01*
X141641429Y-104649048D02*
X141641429Y-104344286D01*
X141908095Y-104534762D02*
X141222381Y-104534762D01*
X141146190Y-104496667D01*
X141108095Y-104420476D01*
X141108095Y-104344286D01*
X140241429Y-118820476D02*
X139708095Y-118668095D01*
X140089048Y-118515714D01*
X139708095Y-118363333D01*
X140241429Y-118210952D01*
X140241429Y-117982381D02*
X139708095Y-117830000D01*
X140089048Y-117677619D01*
X139708095Y-117525238D01*
X140241429Y-117372857D01*
X140241429Y-117144286D02*
X139708095Y-116991905D01*
X140089048Y-116839524D01*
X139708095Y-116687143D01*
X140241429Y-116534762D01*
X139784286Y-116230001D02*
X139746190Y-116191906D01*
X139708095Y-116230001D01*
X139746190Y-116268096D01*
X139784286Y-116230001D01*
X139708095Y-116230001D01*
X139708095Y-115849049D02*
X140241429Y-115849049D01*
X140089048Y-115849049D02*
X140165238Y-115810954D01*
X140203333Y-115772858D01*
X140241429Y-115696668D01*
X140241429Y-115620477D01*
X139708095Y-115239525D02*
X139746190Y-115315716D01*
X139784286Y-115353811D01*
X139860476Y-115391906D01*
X140089048Y-115391906D01*
X140165238Y-115353811D01*
X140203333Y-115315716D01*
X140241429Y-115239525D01*
X140241429Y-115125239D01*
X140203333Y-115049049D01*
X140165238Y-115010954D01*
X140089048Y-114972858D01*
X139860476Y-114972858D01*
X139784286Y-115010954D01*
X139746190Y-115049049D01*
X139708095Y-115125239D01*
X139708095Y-115239525D01*
X139708095Y-114630001D02*
X140508095Y-114630001D01*
X140203333Y-114630001D02*
X140241429Y-114553810D01*
X140241429Y-114401429D01*
X140203333Y-114325239D01*
X140165238Y-114287144D01*
X140089048Y-114249048D01*
X139860476Y-114249048D01*
X139784286Y-114287144D01*
X139746190Y-114325239D01*
X139708095Y-114401429D01*
X139708095Y-114553810D01*
X139746190Y-114630001D01*
X139746190Y-113601429D02*
X139708095Y-113677619D01*
X139708095Y-113830000D01*
X139746190Y-113906191D01*
X139822381Y-113944286D01*
X140127143Y-113944286D01*
X140203333Y-113906191D01*
X140241429Y-113830000D01*
X140241429Y-113677619D01*
X140203333Y-113601429D01*
X140127143Y-113563334D01*
X140050952Y-113563334D01*
X139974762Y-113944286D01*
X139708095Y-113220477D02*
X140241429Y-113220477D01*
X140089048Y-113220477D02*
X140165238Y-113182382D01*
X140203333Y-113144286D01*
X140241429Y-113068096D01*
X140241429Y-112991905D01*
X140241429Y-112839525D02*
X140241429Y-112534763D01*
X140508095Y-112725239D02*
X139822381Y-112725239D01*
X139746190Y-112687144D01*
X139708095Y-112610953D01*
X139708095Y-112534763D01*
X139708095Y-112268096D02*
X140508095Y-112268096D01*
X139708095Y-111925239D02*
X140127143Y-111925239D01*
X140203333Y-111963334D01*
X140241429Y-112039524D01*
X140241429Y-112153810D01*
X140203333Y-112230001D01*
X140165238Y-112268096D01*
X139708095Y-111201429D02*
X140127143Y-111201429D01*
X140203333Y-111239524D01*
X140241429Y-111315714D01*
X140241429Y-111468095D01*
X140203333Y-111544286D01*
X139746190Y-111201429D02*
X139708095Y-111277619D01*
X139708095Y-111468095D01*
X139746190Y-111544286D01*
X139822381Y-111582381D01*
X139898571Y-111582381D01*
X139974762Y-111544286D01*
X140012857Y-111468095D01*
X140012857Y-111277619D01*
X140050952Y-111201429D01*
X139708095Y-110820476D02*
X140241429Y-110820476D01*
X140089048Y-110820476D02*
X140165238Y-110782381D01*
X140203333Y-110744285D01*
X140241429Y-110668095D01*
X140241429Y-110591904D01*
X139708095Y-110325238D02*
X140241429Y-110325238D01*
X140089048Y-110325238D02*
X140165238Y-110287143D01*
X140203333Y-110249047D01*
X140241429Y-110172857D01*
X140241429Y-110096666D01*
X139708095Y-109830000D02*
X140241429Y-109830000D01*
X140508095Y-109830000D02*
X140470000Y-109868095D01*
X140431905Y-109830000D01*
X140470000Y-109791905D01*
X140508095Y-109830000D01*
X140431905Y-109830000D01*
X139746190Y-109487143D02*
X139708095Y-109410953D01*
X139708095Y-109258572D01*
X139746190Y-109182381D01*
X139822381Y-109144286D01*
X139860476Y-109144286D01*
X139936667Y-109182381D01*
X139974762Y-109258572D01*
X139974762Y-109372857D01*
X140012857Y-109449048D01*
X140089048Y-109487143D01*
X140127143Y-109487143D01*
X140203333Y-109449048D01*
X140241429Y-109372857D01*
X140241429Y-109258572D01*
X140203333Y-109182381D01*
X139708095Y-108687143D02*
X139746190Y-108763334D01*
X139784286Y-108801429D01*
X139860476Y-108839524D01*
X140089048Y-108839524D01*
X140165238Y-108801429D01*
X140203333Y-108763334D01*
X140241429Y-108687143D01*
X140241429Y-108572857D01*
X140203333Y-108496667D01*
X140165238Y-108458572D01*
X140089048Y-108420476D01*
X139860476Y-108420476D01*
X139784286Y-108458572D01*
X139746190Y-108496667D01*
X139708095Y-108572857D01*
X139708095Y-108687143D01*
X140241429Y-108077619D02*
X139708095Y-108077619D01*
X140165238Y-108077619D02*
X140203333Y-108039524D01*
X140241429Y-107963333D01*
X140241429Y-107849047D01*
X140203333Y-107772857D01*
X140127143Y-107734762D01*
X139708095Y-107734762D01*
X139784286Y-107353809D02*
X139746190Y-107315714D01*
X139708095Y-107353809D01*
X139746190Y-107391904D01*
X139784286Y-107353809D01*
X139708095Y-107353809D01*
X139708095Y-106858571D02*
X139746190Y-106934762D01*
X139784286Y-106972857D01*
X139860476Y-107010952D01*
X140089048Y-107010952D01*
X140165238Y-106972857D01*
X140203333Y-106934762D01*
X140241429Y-106858571D01*
X140241429Y-106744285D01*
X140203333Y-106668095D01*
X140165238Y-106630000D01*
X140089048Y-106591904D01*
X139860476Y-106591904D01*
X139784286Y-106630000D01*
X139746190Y-106668095D01*
X139708095Y-106744285D01*
X139708095Y-106858571D01*
X139708095Y-106249047D02*
X140241429Y-106249047D01*
X140089048Y-106249047D02*
X140165238Y-106210952D01*
X140203333Y-106172856D01*
X140241429Y-106096666D01*
X140241429Y-106020475D01*
X140241429Y-105410952D02*
X139593810Y-105410952D01*
X139517619Y-105449047D01*
X139479524Y-105487142D01*
X139441429Y-105563333D01*
X139441429Y-105677618D01*
X139479524Y-105753809D01*
X139746190Y-105410952D02*
X139708095Y-105487142D01*
X139708095Y-105639523D01*
X139746190Y-105715714D01*
X139784286Y-105753809D01*
X139860476Y-105791904D01*
X140089048Y-105791904D01*
X140165238Y-105753809D01*
X140203333Y-105715714D01*
X140241429Y-105639523D01*
X140241429Y-105487142D01*
X140203333Y-105410952D01*
X140546190Y-104458570D02*
X139517619Y-105144285D01*
X139708095Y-104191904D02*
X140241429Y-104191904D01*
X140508095Y-104191904D02*
X140470000Y-104229999D01*
X140431905Y-104191904D01*
X140470000Y-104153809D01*
X140508095Y-104191904D01*
X140431905Y-104191904D01*
X139746190Y-103468095D02*
X139708095Y-103544285D01*
X139708095Y-103696666D01*
X139746190Y-103772857D01*
X139784286Y-103810952D01*
X139860476Y-103849047D01*
X140089048Y-103849047D01*
X140165238Y-103810952D01*
X140203333Y-103772857D01*
X140241429Y-103696666D01*
X140241429Y-103544285D01*
X140203333Y-103468095D01*
X139708095Y-102782381D02*
X140127143Y-102782381D01*
X140203333Y-102820476D01*
X140241429Y-102896666D01*
X140241429Y-103049047D01*
X140203333Y-103125238D01*
X139746190Y-102782381D02*
X139708095Y-102858571D01*
X139708095Y-103049047D01*
X139746190Y-103125238D01*
X139822381Y-103163333D01*
X139898571Y-103163333D01*
X139974762Y-103125238D01*
X140012857Y-103049047D01*
X140012857Y-102858571D01*
X140050952Y-102782381D01*
X139708095Y-102401428D02*
X140241429Y-102401428D01*
X140089048Y-102401428D02*
X140165238Y-102363333D01*
X140203333Y-102325237D01*
X140241429Y-102249047D01*
X140241429Y-102172856D01*
X140241429Y-101563333D02*
X139708095Y-101563333D01*
X140241429Y-101906190D02*
X139822381Y-101906190D01*
X139746190Y-101868095D01*
X139708095Y-101791904D01*
X139708095Y-101677618D01*
X139746190Y-101601428D01*
X139784286Y-101563333D01*
X139746190Y-101220475D02*
X139708095Y-101144285D01*
X139708095Y-100991904D01*
X139746190Y-100915713D01*
X139822381Y-100877618D01*
X139860476Y-100877618D01*
X139936667Y-100915713D01*
X139974762Y-100991904D01*
X139974762Y-101106189D01*
X140012857Y-101182380D01*
X140089048Y-101220475D01*
X140127143Y-101220475D01*
X140203333Y-101182380D01*
X140241429Y-101106189D01*
X140241429Y-100991904D01*
X140203333Y-100915713D01*
X139108095Y-120363336D02*
X139108095Y-119906193D01*
X138308095Y-120134764D02*
X139108095Y-120134764D01*
X138308095Y-119601431D02*
X138308095Y-119449050D01*
X138346190Y-119372859D01*
X138384286Y-119334764D01*
X138498571Y-119258573D01*
X138650952Y-119220478D01*
X138955714Y-119220478D01*
X139031905Y-119258573D01*
X139070000Y-119296669D01*
X139108095Y-119372859D01*
X139108095Y-119525240D01*
X139070000Y-119601431D01*
X139031905Y-119639526D01*
X138955714Y-119677621D01*
X138765238Y-119677621D01*
X138689048Y-119639526D01*
X138650952Y-119601431D01*
X138612857Y-119525240D01*
X138612857Y-119372859D01*
X138650952Y-119296669D01*
X138689048Y-119258573D01*
X138765238Y-119220478D01*
X139108095Y-118534764D02*
X139108095Y-118687145D01*
X139070000Y-118763335D01*
X139031905Y-118801430D01*
X138917619Y-118877621D01*
X138765238Y-118915716D01*
X138460476Y-118915716D01*
X138384286Y-118877621D01*
X138346190Y-118839526D01*
X138308095Y-118763335D01*
X138308095Y-118610954D01*
X138346190Y-118534764D01*
X138384286Y-118496668D01*
X138460476Y-118458573D01*
X138650952Y-118458573D01*
X138727143Y-118496668D01*
X138765238Y-118534764D01*
X138803333Y-118610954D01*
X138803333Y-118763335D01*
X138765238Y-118839526D01*
X138727143Y-118877621D01*
X138650952Y-118915716D01*
X139031905Y-118153811D02*
X139070000Y-118115716D01*
X139108095Y-118039525D01*
X139108095Y-117849049D01*
X139070000Y-117772859D01*
X139031905Y-117734763D01*
X138955714Y-117696668D01*
X138879524Y-117696668D01*
X138765238Y-117734763D01*
X138308095Y-118191906D01*
X138308095Y-117696668D01*
X139146190Y-116172858D02*
X138117619Y-116858573D01*
X139108095Y-115410954D02*
X139108095Y-114953811D01*
X138308095Y-115182382D02*
X139108095Y-115182382D01*
X138308095Y-114649049D02*
X138308095Y-114496668D01*
X138346190Y-114420477D01*
X138384286Y-114382382D01*
X138498571Y-114306191D01*
X138650952Y-114268096D01*
X138955714Y-114268096D01*
X139031905Y-114306191D01*
X139070000Y-114344287D01*
X139108095Y-114420477D01*
X139108095Y-114572858D01*
X139070000Y-114649049D01*
X139031905Y-114687144D01*
X138955714Y-114725239D01*
X138765238Y-114725239D01*
X138689048Y-114687144D01*
X138650952Y-114649049D01*
X138612857Y-114572858D01*
X138612857Y-114420477D01*
X138650952Y-114344287D01*
X138689048Y-114306191D01*
X138765238Y-114268096D01*
X139108095Y-113582382D02*
X139108095Y-113734763D01*
X139070000Y-113810953D01*
X139031905Y-113849048D01*
X138917619Y-113925239D01*
X138765238Y-113963334D01*
X138460476Y-113963334D01*
X138384286Y-113925239D01*
X138346190Y-113887144D01*
X138308095Y-113810953D01*
X138308095Y-113658572D01*
X138346190Y-113582382D01*
X138384286Y-113544286D01*
X138460476Y-113506191D01*
X138650952Y-113506191D01*
X138727143Y-113544286D01*
X138765238Y-113582382D01*
X138803333Y-113658572D01*
X138803333Y-113810953D01*
X138765238Y-113887144D01*
X138727143Y-113925239D01*
X138650952Y-113963334D01*
X139031905Y-113201429D02*
X139070000Y-113163334D01*
X139108095Y-113087143D01*
X139108095Y-112896667D01*
X139070000Y-112820477D01*
X139031905Y-112782381D01*
X138955714Y-112744286D01*
X138879524Y-112744286D01*
X138765238Y-112782381D01*
X138308095Y-113239524D01*
X138308095Y-112744286D01*
X138536667Y-112439524D02*
X138536667Y-112058572D01*
X138308095Y-112515715D02*
X139108095Y-112249048D01*
X138308095Y-111982381D01*
X138384286Y-110649048D02*
X138346190Y-110687143D01*
X138308095Y-110801429D01*
X138308095Y-110877619D01*
X138346190Y-110991905D01*
X138422381Y-111068096D01*
X138498571Y-111106191D01*
X138650952Y-111144286D01*
X138765238Y-111144286D01*
X138917619Y-111106191D01*
X138993810Y-111068096D01*
X139070000Y-110991905D01*
X139108095Y-110877619D01*
X139108095Y-110801429D01*
X139070000Y-110687143D01*
X139031905Y-110649048D01*
X138308095Y-110191905D02*
X138346190Y-110268096D01*
X138384286Y-110306191D01*
X138460476Y-110344286D01*
X138689048Y-110344286D01*
X138765238Y-110306191D01*
X138803333Y-110268096D01*
X138841429Y-110191905D01*
X138841429Y-110077619D01*
X138803333Y-110001429D01*
X138765238Y-109963334D01*
X138689048Y-109925238D01*
X138460476Y-109925238D01*
X138384286Y-109963334D01*
X138346190Y-110001429D01*
X138308095Y-110077619D01*
X138308095Y-110191905D01*
X138841429Y-109582381D02*
X138308095Y-109582381D01*
X138765238Y-109582381D02*
X138803333Y-109544286D01*
X138841429Y-109468095D01*
X138841429Y-109353809D01*
X138803333Y-109277619D01*
X138727143Y-109239524D01*
X138308095Y-109239524D01*
X138841429Y-108972857D02*
X138841429Y-108668095D01*
X139108095Y-108858571D02*
X138422381Y-108858571D01*
X138346190Y-108820476D01*
X138308095Y-108744285D01*
X138308095Y-108668095D01*
X138308095Y-108401428D02*
X138841429Y-108401428D01*
X138689048Y-108401428D02*
X138765238Y-108363333D01*
X138803333Y-108325237D01*
X138841429Y-108249047D01*
X138841429Y-108172856D01*
X138308095Y-107791904D02*
X138346190Y-107868095D01*
X138384286Y-107906190D01*
X138460476Y-107944285D01*
X138689048Y-107944285D01*
X138765238Y-107906190D01*
X138803333Y-107868095D01*
X138841429Y-107791904D01*
X138841429Y-107677618D01*
X138803333Y-107601428D01*
X138765238Y-107563333D01*
X138689048Y-107525237D01*
X138460476Y-107525237D01*
X138384286Y-107563333D01*
X138346190Y-107601428D01*
X138308095Y-107677618D01*
X138308095Y-107791904D01*
X138308095Y-107068094D02*
X138346190Y-107144285D01*
X138422381Y-107182380D01*
X139108095Y-107182380D01*
X138308095Y-106649046D02*
X138346190Y-106725237D01*
X138422381Y-106763332D01*
X139108095Y-106763332D01*
X138346190Y-106039522D02*
X138308095Y-106115712D01*
X138308095Y-106268093D01*
X138346190Y-106344284D01*
X138422381Y-106382379D01*
X138727143Y-106382379D01*
X138803333Y-106344284D01*
X138841429Y-106268093D01*
X138841429Y-106115712D01*
X138803333Y-106039522D01*
X138727143Y-106001427D01*
X138650952Y-106001427D01*
X138574762Y-106382379D01*
X138308095Y-105658570D02*
X138841429Y-105658570D01*
X138689048Y-105658570D02*
X138765238Y-105620475D01*
X138803333Y-105582379D01*
X138841429Y-105506189D01*
X138841429Y-105429998D01*
X139108095Y-104553808D02*
X138460476Y-104553808D01*
X138384286Y-104515713D01*
X138346190Y-104477617D01*
X138308095Y-104401427D01*
X138308095Y-104249046D01*
X138346190Y-104172855D01*
X138384286Y-104134760D01*
X138460476Y-104096665D01*
X139108095Y-104096665D01*
X138841429Y-103715713D02*
X138041429Y-103715713D01*
X138803333Y-103715713D02*
X138841429Y-103639522D01*
X138841429Y-103487141D01*
X138803333Y-103410951D01*
X138765238Y-103372856D01*
X138689048Y-103334760D01*
X138460476Y-103334760D01*
X138384286Y-103372856D01*
X138346190Y-103410951D01*
X138308095Y-103487141D01*
X138308095Y-103639522D01*
X138346190Y-103715713D01*
X138841429Y-102649046D02*
X138193810Y-102649046D01*
X138117619Y-102687141D01*
X138079524Y-102725236D01*
X138041429Y-102801427D01*
X138041429Y-102915712D01*
X138079524Y-102991903D01*
X138346190Y-102649046D02*
X138308095Y-102725236D01*
X138308095Y-102877617D01*
X138346190Y-102953808D01*
X138384286Y-102991903D01*
X138460476Y-103029998D01*
X138689048Y-103029998D01*
X138765238Y-102991903D01*
X138803333Y-102953808D01*
X138841429Y-102877617D01*
X138841429Y-102725236D01*
X138803333Y-102649046D01*
X138308095Y-102268093D02*
X138841429Y-102268093D01*
X138689048Y-102268093D02*
X138765238Y-102229998D01*
X138803333Y-102191902D01*
X138841429Y-102115712D01*
X138841429Y-102039521D01*
X138308095Y-101429998D02*
X138727143Y-101429998D01*
X138803333Y-101468093D01*
X138841429Y-101544283D01*
X138841429Y-101696664D01*
X138803333Y-101772855D01*
X138346190Y-101429998D02*
X138308095Y-101506188D01*
X138308095Y-101696664D01*
X138346190Y-101772855D01*
X138422381Y-101810950D01*
X138498571Y-101810950D01*
X138574762Y-101772855D01*
X138612857Y-101696664D01*
X138612857Y-101506188D01*
X138650952Y-101429998D01*
X138308095Y-100706188D02*
X139108095Y-100706188D01*
X138346190Y-100706188D02*
X138308095Y-100782378D01*
X138308095Y-100934759D01*
X138346190Y-101010950D01*
X138384286Y-101049045D01*
X138460476Y-101087140D01*
X138689048Y-101087140D01*
X138765238Y-101049045D01*
X138803333Y-101010950D01*
X138841429Y-100934759D01*
X138841429Y-100782378D01*
X138803333Y-100706188D01*
X138346190Y-100020473D02*
X138308095Y-100096663D01*
X138308095Y-100249044D01*
X138346190Y-100325235D01*
X138422381Y-100363330D01*
X138727143Y-100363330D01*
X138803333Y-100325235D01*
X138841429Y-100249044D01*
X138841429Y-100096663D01*
X138803333Y-100020473D01*
X138727143Y-99982378D01*
X138650952Y-99982378D01*
X138574762Y-100363330D01*
D12*
X149654000Y-96211000D02*
X151204000Y-96211000D01*
X151204000Y-96211000D02*
X151204000Y-93111000D01*
X151204000Y-93111000D02*
X149654000Y-93111000D01*
X148384000Y-93391000D02*
X138224000Y-93391000D01*
X138224000Y-93391000D02*
X138224000Y-95931000D01*
X138224000Y-95931000D02*
X148384000Y-95931000D01*
X148384000Y-93391000D02*
X148384000Y-95931000D01*
D13*
G36*
X145184543Y-117223333D02*
X145171440Y-116952983D01*
X145132920Y-116757307D01*
X145113033Y-116704750D01*
X145065539Y-116610297D01*
X145013596Y-116563470D01*
X144927549Y-116547605D01*
X144830521Y-116546000D01*
X144618721Y-116546000D01*
X144733111Y-116766719D01*
X144831406Y-117038123D01*
X144850796Y-117306059D01*
X144796642Y-117558817D01*
X144674303Y-117784688D01*
X144489141Y-117971963D01*
X144246514Y-118108935D01*
X144096629Y-118157087D01*
X143822805Y-118185568D01*
X143564139Y-118139670D01*
X143332451Y-118028631D01*
X143139563Y-117861689D01*
X142997297Y-117648084D01*
X142917474Y-117397054D01*
X142904545Y-117225484D01*
X142944611Y-116955403D01*
X143051455Y-116716439D01*
X143123500Y-116620083D01*
X143154053Y-116578059D01*
X143141252Y-116555913D01*
X143070629Y-116547336D01*
X142953658Y-116546000D01*
X142718860Y-116546000D01*
X142648582Y-116721644D01*
X142599369Y-116894345D01*
X142567456Y-117104726D01*
X142555938Y-117317299D01*
X142567910Y-117496579D01*
X142577131Y-117540833D01*
X142700555Y-117859162D01*
X142889322Y-118123833D01*
X143142429Y-118333609D01*
X143285201Y-118413812D01*
X143600407Y-118524594D01*
X143921085Y-118554579D01*
X144235284Y-118505821D01*
X144531050Y-118380378D01*
X144796433Y-118180306D01*
X144828725Y-118148259D01*
X144998972Y-117947148D01*
X145108487Y-117744467D01*
X145167077Y-117514723D01*
X145184550Y-117232424D01*
X145184543Y-117223333D01*
X145184543Y-117223333D01*
G37*
X145184543Y-117223333D02*
X145171440Y-116952983D01*
X145132920Y-116757307D01*
X145113033Y-116704750D01*
X145065539Y-116610297D01*
X145013596Y-116563470D01*
X144927549Y-116547605D01*
X144830521Y-116546000D01*
X144618721Y-116546000D01*
X144733111Y-116766719D01*
X144831406Y-117038123D01*
X144850796Y-117306059D01*
X144796642Y-117558817D01*
X144674303Y-117784688D01*
X144489141Y-117971963D01*
X144246514Y-118108935D01*
X144096629Y-118157087D01*
X143822805Y-118185568D01*
X143564139Y-118139670D01*
X143332451Y-118028631D01*
X143139563Y-117861689D01*
X142997297Y-117648084D01*
X142917474Y-117397054D01*
X142904545Y-117225484D01*
X142944611Y-116955403D01*
X143051455Y-116716439D01*
X143123500Y-116620083D01*
X143154053Y-116578059D01*
X143141252Y-116555913D01*
X143070629Y-116547336D01*
X142953658Y-116546000D01*
X142718860Y-116546000D01*
X142648582Y-116721644D01*
X142599369Y-116894345D01*
X142567456Y-117104726D01*
X142555938Y-117317299D01*
X142567910Y-117496579D01*
X142577131Y-117540833D01*
X142700555Y-117859162D01*
X142889322Y-118123833D01*
X143142429Y-118333609D01*
X143285201Y-118413812D01*
X143600407Y-118524594D01*
X143921085Y-118554579D01*
X144235284Y-118505821D01*
X144531050Y-118380378D01*
X144796433Y-118180306D01*
X144828725Y-118148259D01*
X144998972Y-117947148D01*
X145108487Y-117744467D01*
X145167077Y-117514723D01*
X145184550Y-117232424D01*
X145184543Y-117223333D01*
G36*
X144250648Y-104650333D02*
X143905944Y-104648921D01*
X143635281Y-104642910D01*
X143428054Y-104629639D01*
X143273660Y-104606446D01*
X143161495Y-104570670D01*
X143080954Y-104519649D01*
X143021434Y-104450722D01*
X142972331Y-104361228D01*
X142956017Y-104325398D01*
X142899601Y-104108085D01*
X142925442Y-103902802D01*
X143017889Y-103734669D01*
X143080783Y-103664026D01*
X143152109Y-103609572D01*
X143243253Y-103569245D01*
X143365604Y-103540987D01*
X143530549Y-103522737D01*
X143749475Y-103512435D01*
X144033770Y-103508022D01*
X144274641Y-103507333D01*
X145165000Y-103507333D01*
X145165000Y-103126333D01*
X144294747Y-103126333D01*
X143942464Y-103128016D01*
X143662848Y-103134669D01*
X143443937Y-103148706D01*
X143273770Y-103172536D01*
X143140385Y-103208571D01*
X143031821Y-103259222D01*
X142936116Y-103326900D01*
X142841310Y-103414016D01*
X142834651Y-103420651D01*
X142660285Y-103642087D01*
X142566922Y-103880176D01*
X142552963Y-104141791D01*
X142606384Y-104401158D01*
X142698572Y-104585641D01*
X142846993Y-104761551D01*
X143026142Y-104903890D01*
X143202652Y-104985550D01*
X143296617Y-104999790D01*
X143460778Y-105012080D01*
X143680675Y-105021800D01*
X143941848Y-105028332D01*
X144229835Y-105031056D01*
X144265417Y-105031097D01*
X145165000Y-105031333D01*
X145165000Y-104650333D01*
X144250648Y-104650333D01*
X144250648Y-104650333D01*
G37*
X144250648Y-104650333D02*
X143905944Y-104648921D01*
X143635281Y-104642910D01*
X143428054Y-104629639D01*
X143273660Y-104606446D01*
X143161495Y-104570670D01*
X143080954Y-104519649D01*
X143021434Y-104450722D01*
X142972331Y-104361228D01*
X142956017Y-104325398D01*
X142899601Y-104108085D01*
X142925442Y-103902802D01*
X143017889Y-103734669D01*
X143080783Y-103664026D01*
X143152109Y-103609572D01*
X143243253Y-103569245D01*
X143365604Y-103540987D01*
X143530549Y-103522737D01*
X143749475Y-103512435D01*
X144033770Y-103508022D01*
X144274641Y-103507333D01*
X145165000Y-103507333D01*
X145165000Y-103126333D01*
X144294747Y-103126333D01*
X143942464Y-103128016D01*
X143662848Y-103134669D01*
X143443937Y-103148706D01*
X143273770Y-103172536D01*
X143140385Y-103208571D01*
X143031821Y-103259222D01*
X142936116Y-103326900D01*
X142841310Y-103414016D01*
X142834651Y-103420651D01*
X142660285Y-103642087D01*
X142566922Y-103880176D01*
X142552963Y-104141791D01*
X142606384Y-104401158D01*
X142698572Y-104585641D01*
X142846993Y-104761551D01*
X143026142Y-104903890D01*
X143202652Y-104985550D01*
X143296617Y-104999790D01*
X143460778Y-105012080D01*
X143680675Y-105021800D01*
X143941848Y-105028332D01*
X144229835Y-105031056D01*
X144265417Y-105031097D01*
X145165000Y-105031333D01*
X145165000Y-104650333D01*
X144250648Y-104650333D01*
G36*
X145138891Y-99312946D02*
X145025836Y-99123999D01*
X144920057Y-99026449D01*
X144792247Y-98935440D01*
X144620769Y-99206272D01*
X144744718Y-99347443D01*
X144843983Y-99503468D01*
X144861621Y-99660942D01*
X144806733Y-99821306D01*
X144718889Y-99936938D01*
X144596467Y-99987810D01*
X144511933Y-99993667D01*
X144441597Y-99981959D01*
X144376830Y-99939145D01*
X144308679Y-99853692D01*
X144228190Y-99714066D01*
X144126412Y-99508735D01*
X144112038Y-99478487D01*
X143994444Y-99251557D01*
X143883760Y-99091863D01*
X143765847Y-98984630D01*
X143626569Y-98915085D01*
X143550180Y-98891343D01*
X143306010Y-98864172D01*
X143080134Y-98909683D01*
X142882085Y-99016346D01*
X142721394Y-99172633D01*
X142607594Y-99367013D01*
X142550216Y-99587956D01*
X142558792Y-99823932D01*
X142619906Y-100016585D01*
X142751967Y-100217550D01*
X142935528Y-100373292D01*
X143121351Y-100456559D01*
X143223487Y-100481564D01*
X143282551Y-100489948D01*
X143287050Y-100488728D01*
X143301955Y-100444816D01*
X143326865Y-100346948D01*
X143337847Y-100299375D01*
X143358322Y-100185595D01*
X143350451Y-100132639D01*
X143316898Y-100120667D01*
X143184173Y-100085187D01*
X143052322Y-99994463D01*
X142953141Y-99872071D01*
X142937081Y-99839058D01*
X142900043Y-99655442D01*
X142938077Y-99487667D01*
X143041586Y-99351950D01*
X143200975Y-99264507D01*
X143288465Y-99245215D01*
X143426613Y-99248473D01*
X143547537Y-99303925D01*
X143660632Y-99420114D01*
X143775293Y-99605585D01*
X143849610Y-99755515D01*
X143974888Y-99998627D01*
X144094566Y-100170112D01*
X144220568Y-100281178D01*
X144364818Y-100343031D01*
X144497314Y-100364294D01*
X144721145Y-100348079D01*
X144905920Y-100258437D01*
X145055890Y-100092814D01*
X145112084Y-99994938D01*
X145186096Y-99768999D01*
X145193671Y-99534807D01*
X145138891Y-99312946D01*
X145138891Y-99312946D01*
G37*
X145138891Y-99312946D02*
X145025836Y-99123999D01*
X144920057Y-99026449D01*
X144792247Y-98935440D01*
X144620769Y-99206272D01*
X144744718Y-99347443D01*
X144843983Y-99503468D01*
X144861621Y-99660942D01*
X144806733Y-99821306D01*
X144718889Y-99936938D01*
X144596467Y-99987810D01*
X144511933Y-99993667D01*
X144441597Y-99981959D01*
X144376830Y-99939145D01*
X144308679Y-99853692D01*
X144228190Y-99714066D01*
X144126412Y-99508735D01*
X144112038Y-99478487D01*
X143994444Y-99251557D01*
X143883760Y-99091863D01*
X143765847Y-98984630D01*
X143626569Y-98915085D01*
X143550180Y-98891343D01*
X143306010Y-98864172D01*
X143080134Y-98909683D01*
X142882085Y-99016346D01*
X142721394Y-99172633D01*
X142607594Y-99367013D01*
X142550216Y-99587956D01*
X142558792Y-99823932D01*
X142619906Y-100016585D01*
X142751967Y-100217550D01*
X142935528Y-100373292D01*
X143121351Y-100456559D01*
X143223487Y-100481564D01*
X143282551Y-100489948D01*
X143287050Y-100488728D01*
X143301955Y-100444816D01*
X143326865Y-100346948D01*
X143337847Y-100299375D01*
X143358322Y-100185595D01*
X143350451Y-100132639D01*
X143316898Y-100120667D01*
X143184173Y-100085187D01*
X143052322Y-99994463D01*
X142953141Y-99872071D01*
X142937081Y-99839058D01*
X142900043Y-99655442D01*
X142938077Y-99487667D01*
X143041586Y-99351950D01*
X143200975Y-99264507D01*
X143288465Y-99245215D01*
X143426613Y-99248473D01*
X143547537Y-99303925D01*
X143660632Y-99420114D01*
X143775293Y-99605585D01*
X143849610Y-99755515D01*
X143974888Y-99998627D01*
X144094566Y-100170112D01*
X144220568Y-100281178D01*
X144364818Y-100343031D01*
X144497314Y-100364294D01*
X144721145Y-100348079D01*
X144905920Y-100258437D01*
X145055890Y-100092814D01*
X145112084Y-99994938D01*
X145186096Y-99768999D01*
X145193671Y-99534807D01*
X145138891Y-99312946D01*
G36*
X142582667Y-121202667D02*
X142582667Y-121583667D01*
X145165000Y-121583667D01*
X145165000Y-121202667D01*
X142582667Y-121202667D01*
X142582667Y-121202667D01*
G37*
X142582667Y-121202667D02*
X142582667Y-121583667D01*
X145165000Y-121583667D01*
X145165000Y-121202667D01*
X142582667Y-121202667D01*
G36*
X145212766Y-112833732D02*
X145101610Y-112780872D01*
X144935292Y-112703790D01*
X144724950Y-112607488D01*
X144481724Y-112496967D01*
X144216752Y-112377230D01*
X143941173Y-112253279D01*
X143666126Y-112130117D01*
X143402749Y-112012745D01*
X143162183Y-111906165D01*
X142955565Y-111815381D01*
X142794034Y-111745393D01*
X142688730Y-111701205D01*
X142654202Y-111688235D01*
X142608485Y-111685073D01*
X142588596Y-111722595D01*
X142587903Y-111819443D01*
X142590702Y-111866758D01*
X142603834Y-112067057D01*
X142910750Y-112195772D01*
X143217667Y-112324487D01*
X143217667Y-113446267D01*
X142582667Y-113747827D01*
X142582667Y-113939049D01*
X142586738Y-114055006D01*
X142604759Y-114104435D01*
X142645442Y-114105314D01*
X142660607Y-114099886D01*
X142771012Y-114053632D01*
X142934909Y-113980722D01*
X143141760Y-113886199D01*
X143381027Y-113775104D01*
X143609250Y-113667939D01*
X143609250Y-113274419D01*
X143583691Y-113263413D01*
X143567314Y-113199030D01*
X143558679Y-113070647D01*
X143556334Y-112884167D01*
X143559019Y-112686988D01*
X143568042Y-112563672D01*
X143584853Y-112503556D01*
X143609250Y-112495230D01*
X143820137Y-112585332D01*
X144020562Y-112673250D01*
X144195068Y-112751969D01*
X144328199Y-112814475D01*
X144404498Y-112853752D01*
X144415255Y-112861017D01*
X144391391Y-112887937D01*
X144306372Y-112940841D01*
X144176445Y-113011397D01*
X144017856Y-113091271D01*
X143846849Y-113172133D01*
X143679672Y-113245648D01*
X143609250Y-113274419D01*
X143609250Y-113667939D01*
X143642174Y-113652478D01*
X143914662Y-113523364D01*
X144187954Y-113392803D01*
X144451512Y-113265835D01*
X144694800Y-113147504D01*
X144907279Y-113042851D01*
X145078411Y-112956917D01*
X145197660Y-112894743D01*
X145254488Y-112861372D01*
X145257621Y-112857366D01*
X145212766Y-112833732D01*
X145212766Y-112833732D01*
G37*
X145212766Y-112833732D02*
X145101610Y-112780872D01*
X144935292Y-112703790D01*
X144724950Y-112607488D01*
X144481724Y-112496967D01*
X144216752Y-112377230D01*
X143941173Y-112253279D01*
X143666126Y-112130117D01*
X143402749Y-112012745D01*
X143162183Y-111906165D01*
X142955565Y-111815381D01*
X142794034Y-111745393D01*
X142688730Y-111701205D01*
X142654202Y-111688235D01*
X142608485Y-111685073D01*
X142588596Y-111722595D01*
X142587903Y-111819443D01*
X142590702Y-111866758D01*
X142603834Y-112067057D01*
X142910750Y-112195772D01*
X143217667Y-112324487D01*
X143217667Y-113446267D01*
X142582667Y-113747827D01*
X142582667Y-113939049D01*
X142586738Y-114055006D01*
X142604759Y-114104435D01*
X142645442Y-114105314D01*
X142660607Y-114099886D01*
X142771012Y-114053632D01*
X142934909Y-113980722D01*
X143141760Y-113886199D01*
X143381027Y-113775104D01*
X143609250Y-113667939D01*
X143609250Y-113274419D01*
X143583691Y-113263413D01*
X143567314Y-113199030D01*
X143558679Y-113070647D01*
X143556334Y-112884167D01*
X143559019Y-112686988D01*
X143568042Y-112563672D01*
X143584853Y-112503556D01*
X143609250Y-112495230D01*
X143820137Y-112585332D01*
X144020562Y-112673250D01*
X144195068Y-112751969D01*
X144328199Y-112814475D01*
X144404498Y-112853752D01*
X144415255Y-112861017D01*
X144391391Y-112887937D01*
X144306372Y-112940841D01*
X144176445Y-113011397D01*
X144017856Y-113091271D01*
X143846849Y-113172133D01*
X143679672Y-113245648D01*
X143609250Y-113274419D01*
X143609250Y-113667939D01*
X143642174Y-113652478D01*
X143914662Y-113523364D01*
X144187954Y-113392803D01*
X144451512Y-113265835D01*
X144694800Y-113147504D01*
X144907279Y-113042851D01*
X145078411Y-112956917D01*
X145197660Y-112894743D01*
X145254488Y-112861372D01*
X145257621Y-112857366D01*
X145212766Y-112833732D01*
G36*
X145156661Y-108742944D02*
X145128775Y-108438627D01*
X145072352Y-108203824D01*
X144982479Y-108026744D01*
X144854244Y-107895596D01*
X144784343Y-107849370D01*
X144574592Y-107770338D01*
X144352274Y-107758954D01*
X144137173Y-107809680D01*
X143949071Y-107916976D01*
X143807752Y-108075304D01*
X143777793Y-108131158D01*
X143724806Y-108229861D01*
X143681197Y-108285480D01*
X143671778Y-108289908D01*
X143630366Y-108266962D01*
X143535033Y-108204269D01*
X143400238Y-108112012D01*
X143240436Y-108000376D01*
X143070086Y-107879544D01*
X142903644Y-107759699D01*
X142755568Y-107651025D01*
X142640313Y-107563705D01*
X142635584Y-107560014D01*
X142604456Y-107554419D01*
X142587965Y-107607634D01*
X142582706Y-107731807D01*
X142582667Y-107748847D01*
X142582667Y-107979062D01*
X143098190Y-108337517D01*
X143280958Y-108467151D01*
X143437611Y-108583097D01*
X143555372Y-108675522D01*
X143621464Y-108734591D01*
X143630885Y-108747486D01*
X143616044Y-108770064D01*
X143547757Y-108785512D01*
X143416823Y-108794750D01*
X143214043Y-108798696D01*
X143115362Y-108799000D01*
X142582667Y-108799000D01*
X142582667Y-109180000D01*
X143979667Y-109180000D01*
X143979667Y-108799000D01*
X143979667Y-108627565D01*
X143996120Y-108481253D01*
X144036443Y-108347414D01*
X144043605Y-108332486D01*
X144113519Y-108231403D01*
X144188989Y-108165255D01*
X144328648Y-108126653D01*
X144490516Y-108130882D01*
X144629277Y-108175842D01*
X144645936Y-108186415D01*
X144726073Y-108283491D01*
X144788586Y-108435446D01*
X144822763Y-108612776D01*
X144826098Y-108682583D01*
X144826334Y-108799000D01*
X143979667Y-108799000D01*
X143979667Y-109180000D01*
X145176099Y-109180000D01*
X145156661Y-108742944D01*
X145156661Y-108742944D01*
G37*
X145156661Y-108742944D02*
X145128775Y-108438627D01*
X145072352Y-108203824D01*
X144982479Y-108026744D01*
X144854244Y-107895596D01*
X144784343Y-107849370D01*
X144574592Y-107770338D01*
X144352274Y-107758954D01*
X144137173Y-107809680D01*
X143949071Y-107916976D01*
X143807752Y-108075304D01*
X143777793Y-108131158D01*
X143724806Y-108229861D01*
X143681197Y-108285480D01*
X143671778Y-108289908D01*
X143630366Y-108266962D01*
X143535033Y-108204269D01*
X143400238Y-108112012D01*
X143240436Y-108000376D01*
X143070086Y-107879544D01*
X142903644Y-107759699D01*
X142755568Y-107651025D01*
X142640313Y-107563705D01*
X142635584Y-107560014D01*
X142604456Y-107554419D01*
X142587965Y-107607634D01*
X142582706Y-107731807D01*
X142582667Y-107748847D01*
X142582667Y-107979062D01*
X143098190Y-108337517D01*
X143280958Y-108467151D01*
X143437611Y-108583097D01*
X143555372Y-108675522D01*
X143621464Y-108734591D01*
X143630885Y-108747486D01*
X143616044Y-108770064D01*
X143547757Y-108785512D01*
X143416823Y-108794750D01*
X143214043Y-108798696D01*
X143115362Y-108799000D01*
X142582667Y-108799000D01*
X142582667Y-109180000D01*
X143979667Y-109180000D01*
X143979667Y-108799000D01*
X143979667Y-108627565D01*
X143996120Y-108481253D01*
X144036443Y-108347414D01*
X144043605Y-108332486D01*
X144113519Y-108231403D01*
X144188989Y-108165255D01*
X144328648Y-108126653D01*
X144490516Y-108130882D01*
X144629277Y-108175842D01*
X144645936Y-108186415D01*
X144726073Y-108283491D01*
X144788586Y-108435446D01*
X144822763Y-108612776D01*
X144826098Y-108682583D01*
X144826334Y-108799000D01*
X143979667Y-108799000D01*
X143979667Y-109180000D01*
X145176099Y-109180000D01*
X145156661Y-108742944D01*
G36*
X151758854Y-110224384D02*
X151746112Y-109978675D01*
X151726878Y-109789589D01*
X151696405Y-109629098D01*
X151649946Y-109469176D01*
X151613024Y-109363495D01*
X151456877Y-108992067D01*
X151272257Y-108673524D01*
X151039521Y-108376543D01*
X150901167Y-108228593D01*
X150527075Y-107898177D01*
X150125916Y-107645447D01*
X149690971Y-107467466D01*
X149215519Y-107361292D01*
X148841168Y-107327530D01*
X148448768Y-107326997D01*
X148105622Y-107364635D01*
X147782651Y-107446488D01*
X147450774Y-107578601D01*
X147311943Y-107645407D01*
X147107748Y-107755065D01*
X146935474Y-107868015D01*
X146767603Y-108004627D01*
X146576614Y-108185274D01*
X146558898Y-108202849D01*
X146271300Y-108518557D01*
X146048977Y-108835006D01*
X145876166Y-109177461D01*
X145768690Y-109469279D01*
X145694879Y-109778817D01*
X145652340Y-110133720D01*
X145642624Y-110500072D01*
X145667284Y-110843956D01*
X145697766Y-111018930D01*
X145846931Y-111506082D01*
X146061683Y-111946737D01*
X146334765Y-112337557D01*
X146658923Y-112675205D01*
X147026901Y-112956341D01*
X147431445Y-113177629D01*
X147865299Y-113335728D01*
X148321208Y-113427302D01*
X148791917Y-113449011D01*
X149270171Y-113397518D01*
X149748715Y-113269485D01*
X150181500Y-113081998D01*
X150396202Y-112950577D01*
X150626007Y-112768514D01*
X150863336Y-112546425D01*
X151045062Y-112360614D01*
X151180328Y-112205139D01*
X151287362Y-112055714D01*
X151384394Y-111888051D01*
X151441946Y-111775554D01*
X151589940Y-111444334D01*
X151689037Y-111134335D01*
X151744963Y-110817532D01*
X151763442Y-110465899D01*
X151758854Y-110224384D01*
X151758854Y-110224384D01*
G37*
X151758854Y-110224384D02*
X151746112Y-109978675D01*
X151726878Y-109789589D01*
X151696405Y-109629098D01*
X151649946Y-109469176D01*
X151613024Y-109363495D01*
X151456877Y-108992067D01*
X151272257Y-108673524D01*
X151039521Y-108376543D01*
X150901167Y-108228593D01*
X150527075Y-107898177D01*
X150125916Y-107645447D01*
X149690971Y-107467466D01*
X149215519Y-107361292D01*
X148841168Y-107327530D01*
X148448768Y-107326997D01*
X148105622Y-107364635D01*
X147782651Y-107446488D01*
X147450774Y-107578601D01*
X147311943Y-107645407D01*
X147107748Y-107755065D01*
X146935474Y-107868015D01*
X146767603Y-108004627D01*
X146576614Y-108185274D01*
X146558898Y-108202849D01*
X146271300Y-108518557D01*
X146048977Y-108835006D01*
X145876166Y-109177461D01*
X145768690Y-109469279D01*
X145694879Y-109778817D01*
X145652340Y-110133720D01*
X145642624Y-110500072D01*
X145667284Y-110843956D01*
X145697766Y-111018930D01*
X145846931Y-111506082D01*
X146061683Y-111946737D01*
X146334765Y-112337557D01*
X146658923Y-112675205D01*
X147026901Y-112956341D01*
X147431445Y-113177629D01*
X147865299Y-113335728D01*
X148321208Y-113427302D01*
X148791917Y-113449011D01*
X149270171Y-113397518D01*
X149748715Y-113269485D01*
X150181500Y-113081998D01*
X150396202Y-112950577D01*
X150626007Y-112768514D01*
X150863336Y-112546425D01*
X151045062Y-112360614D01*
X151180328Y-112205139D01*
X151287362Y-112055714D01*
X151384394Y-111888051D01*
X151441946Y-111775554D01*
X151589940Y-111444334D01*
X151689037Y-111134335D01*
X151744963Y-110817532D01*
X151763442Y-110465899D01*
X151758854Y-110224384D01*
G36*
X149229974Y-113970057D02*
X149207720Y-113964489D01*
X149200898Y-113969423D01*
X149139673Y-113984479D01*
X149012768Y-113993179D01*
X148838896Y-113995962D01*
X148636770Y-113993265D01*
X148425105Y-113985528D01*
X148222612Y-113973188D01*
X148048006Y-113956684D01*
X147935883Y-113939786D01*
X147806932Y-113914258D01*
X147753277Y-114415212D01*
X147630408Y-115396002D01*
X147473373Y-116373189D01*
X147285076Y-117334978D01*
X147068422Y-118269573D01*
X146826313Y-119165179D01*
X146561654Y-120010001D01*
X146277349Y-120792244D01*
X146048024Y-121341916D01*
X145972797Y-121516252D01*
X145916970Y-121655685D01*
X145885788Y-121746317D01*
X145884499Y-121774251D01*
X145884924Y-121774008D01*
X145923569Y-121732654D01*
X146002059Y-121636209D01*
X146110057Y-121497770D01*
X146237224Y-121330439D01*
X146278789Y-121274926D01*
X146846877Y-120449443D01*
X147369688Y-119558906D01*
X147843367Y-118612100D01*
X148264060Y-117617815D01*
X148627912Y-116584838D01*
X148931067Y-115521955D01*
X149077618Y-114895000D01*
X149145943Y-114570099D01*
X149194530Y-114321244D01*
X149224190Y-114142345D01*
X149235734Y-114027313D01*
X149229974Y-113970057D01*
X149229974Y-113970057D01*
G37*
X149229974Y-113970057D02*
X149207720Y-113964489D01*
X149200898Y-113969423D01*
X149139673Y-113984479D01*
X149012768Y-113993179D01*
X148838896Y-113995962D01*
X148636770Y-113993265D01*
X148425105Y-113985528D01*
X148222612Y-113973188D01*
X148048006Y-113956684D01*
X147935883Y-113939786D01*
X147806932Y-113914258D01*
X147753277Y-114415212D01*
X147630408Y-115396002D01*
X147473373Y-116373189D01*
X147285076Y-117334978D01*
X147068422Y-118269573D01*
X146826313Y-119165179D01*
X146561654Y-120010001D01*
X146277349Y-120792244D01*
X146048024Y-121341916D01*
X145972797Y-121516252D01*
X145916970Y-121655685D01*
X145885788Y-121746317D01*
X145884499Y-121774251D01*
X145884924Y-121774008D01*
X145923569Y-121732654D01*
X146002059Y-121636209D01*
X146110057Y-121497770D01*
X146237224Y-121330439D01*
X146278789Y-121274926D01*
X146846877Y-120449443D01*
X147369688Y-119558906D01*
X147843367Y-118612100D01*
X148264060Y-117617815D01*
X148627912Y-116584838D01*
X148931067Y-115521955D01*
X149077618Y-114895000D01*
X149145943Y-114570099D01*
X149194530Y-114321244D01*
X149224190Y-114142345D01*
X149235734Y-114027313D01*
X149229974Y-113970057D01*
G36*
X149182122Y-106359947D02*
X148949102Y-105299558D01*
X148652933Y-104253742D01*
X148297890Y-103232897D01*
X147888250Y-102247424D01*
X147428290Y-101307723D01*
X146922285Y-100424192D01*
X146446699Y-99707571D01*
X146326590Y-99543317D01*
X146201379Y-99379521D01*
X146081183Y-99228482D01*
X145976125Y-99102500D01*
X145896323Y-99013872D01*
X145851898Y-98974899D01*
X145846110Y-98977667D01*
X145864173Y-99024104D01*
X145910296Y-99120223D01*
X145948763Y-99195615D01*
X146090547Y-99494137D01*
X146243349Y-99863154D01*
X146403028Y-100289863D01*
X146565445Y-100761461D01*
X146726459Y-101265144D01*
X146881930Y-101788109D01*
X147027719Y-102317551D01*
X147159684Y-102840669D01*
X147239943Y-103188645D01*
X147331394Y-103628106D01*
X147424621Y-104122397D01*
X147515206Y-104644836D01*
X147598735Y-105168739D01*
X147670792Y-105667426D01*
X147726961Y-106114215D01*
X147732870Y-106167133D01*
X147808758Y-106858432D01*
X147936796Y-106831718D01*
X148189479Y-106790220D01*
X148471505Y-106761730D01*
X148746028Y-106748956D01*
X148976202Y-106754611D01*
X148980302Y-106754948D01*
X149260770Y-106778394D01*
X149182122Y-106359947D01*
X149182122Y-106359947D01*
G37*
X149182122Y-106359947D02*
X148949102Y-105299558D01*
X148652933Y-104253742D01*
X148297890Y-103232897D01*
X147888250Y-102247424D01*
X147428290Y-101307723D01*
X146922285Y-100424192D01*
X146446699Y-99707571D01*
X146326590Y-99543317D01*
X146201379Y-99379521D01*
X146081183Y-99228482D01*
X145976125Y-99102500D01*
X145896323Y-99013872D01*
X145851898Y-98974899D01*
X145846110Y-98977667D01*
X145864173Y-99024104D01*
X145910296Y-99120223D01*
X145948763Y-99195615D01*
X146090547Y-99494137D01*
X146243349Y-99863154D01*
X146403028Y-100289863D01*
X146565445Y-100761461D01*
X146726459Y-101265144D01*
X146881930Y-101788109D01*
X147027719Y-102317551D01*
X147159684Y-102840669D01*
X147239943Y-103188645D01*
X147331394Y-103628106D01*
X147424621Y-104122397D01*
X147515206Y-104644836D01*
X147598735Y-105168739D01*
X147670792Y-105667426D01*
X147726961Y-106114215D01*
X147732870Y-106167133D01*
X147808758Y-106858432D01*
X147936796Y-106831718D01*
X148189479Y-106790220D01*
X148471505Y-106761730D01*
X148746028Y-106748956D01*
X148976202Y-106754611D01*
X148980302Y-106754948D01*
X149260770Y-106778394D01*
X149182122Y-106359947D01*
M02*
