G04 #@! TF.FileFunction,Legend,Top*
%FSLAX46Y46*%
G04 Gerber Fmt 4.6, Leading zero omitted, Abs format (unit mm)*
G04 Created by KiCad (PCBNEW 4.0.4-stable) date 11/10/16 21:54:05*
%MOMM*%
%LPD*%
G01*
G04 APERTURE LIST*
%ADD10C,0.100000*%
%ADD11C,0.125000*%
%ADD12C,0.300000*%
%ADD13C,0.200000*%
%ADD14C,0.254000*%
%ADD15C,0.127000*%
%ADD16C,0.150000*%
%ADD17C,0.304800*%
%ADD18C,0.040640*%
%ADD19C,0.099060*%
%ADD20C,0.119380*%
%ADD21C,0.149860*%
%ADD22C,0.200660*%
G04 APERTURE END LIST*
D10*
D11*
X141018570Y-118188929D02*
X141361427Y-118188929D01*
X141189998Y-118788929D02*
X141189998Y-118188929D01*
X141589999Y-118788929D02*
X141704284Y-118788929D01*
X141761427Y-118760357D01*
X141789999Y-118731786D01*
X141847141Y-118646071D01*
X141875713Y-118531786D01*
X141875713Y-118303214D01*
X141847141Y-118246071D01*
X141818570Y-118217500D01*
X141761427Y-118188929D01*
X141647141Y-118188929D01*
X141589999Y-118217500D01*
X141561427Y-118246071D01*
X141532856Y-118303214D01*
X141532856Y-118446071D01*
X141561427Y-118503214D01*
X141589999Y-118531786D01*
X141647141Y-118560357D01*
X141761427Y-118560357D01*
X141818570Y-118531786D01*
X141847141Y-118503214D01*
X141875713Y-118446071D01*
X142389999Y-118188929D02*
X142275713Y-118188929D01*
X142218570Y-118217500D01*
X142189999Y-118246071D01*
X142132856Y-118331786D01*
X142104285Y-118446071D01*
X142104285Y-118674643D01*
X142132856Y-118731786D01*
X142161428Y-118760357D01*
X142218570Y-118788929D01*
X142332856Y-118788929D01*
X142389999Y-118760357D01*
X142418570Y-118731786D01*
X142447142Y-118674643D01*
X142447142Y-118531786D01*
X142418570Y-118474643D01*
X142389999Y-118446071D01*
X142332856Y-118417500D01*
X142218570Y-118417500D01*
X142161428Y-118446071D01*
X142132856Y-118474643D01*
X142104285Y-118531786D01*
X142675714Y-118246071D02*
X142704285Y-118217500D01*
X142761428Y-118188929D01*
X142904285Y-118188929D01*
X142961428Y-118217500D01*
X142989999Y-118246071D01*
X143018571Y-118303214D01*
X143018571Y-118360357D01*
X142989999Y-118446071D01*
X142647142Y-118788929D01*
X143018571Y-118788929D01*
X144161429Y-118160357D02*
X143647143Y-118931786D01*
X144732857Y-118188929D02*
X145075714Y-118188929D01*
X144904285Y-118788929D02*
X144904285Y-118188929D01*
X145304286Y-118788929D02*
X145418571Y-118788929D01*
X145475714Y-118760357D01*
X145504286Y-118731786D01*
X145561428Y-118646071D01*
X145590000Y-118531786D01*
X145590000Y-118303214D01*
X145561428Y-118246071D01*
X145532857Y-118217500D01*
X145475714Y-118188929D01*
X145361428Y-118188929D01*
X145304286Y-118217500D01*
X145275714Y-118246071D01*
X145247143Y-118303214D01*
X145247143Y-118446071D01*
X145275714Y-118503214D01*
X145304286Y-118531786D01*
X145361428Y-118560357D01*
X145475714Y-118560357D01*
X145532857Y-118531786D01*
X145561428Y-118503214D01*
X145590000Y-118446071D01*
X146104286Y-118188929D02*
X145990000Y-118188929D01*
X145932857Y-118217500D01*
X145904286Y-118246071D01*
X145847143Y-118331786D01*
X145818572Y-118446071D01*
X145818572Y-118674643D01*
X145847143Y-118731786D01*
X145875715Y-118760357D01*
X145932857Y-118788929D01*
X146047143Y-118788929D01*
X146104286Y-118760357D01*
X146132857Y-118731786D01*
X146161429Y-118674643D01*
X146161429Y-118531786D01*
X146132857Y-118474643D01*
X146104286Y-118446071D01*
X146047143Y-118417500D01*
X145932857Y-118417500D01*
X145875715Y-118446071D01*
X145847143Y-118474643D01*
X145818572Y-118531786D01*
X146390001Y-118246071D02*
X146418572Y-118217500D01*
X146475715Y-118188929D01*
X146618572Y-118188929D01*
X146675715Y-118217500D01*
X146704286Y-118246071D01*
X146732858Y-118303214D01*
X146732858Y-118360357D01*
X146704286Y-118446071D01*
X146361429Y-118788929D01*
X146732858Y-118788929D01*
X146961430Y-118617500D02*
X147247144Y-118617500D01*
X146904287Y-118788929D02*
X147104287Y-118188929D01*
X147304287Y-118788929D01*
X140575714Y-119756786D02*
X140547143Y-119785357D01*
X140461429Y-119813929D01*
X140404286Y-119813929D01*
X140318571Y-119785357D01*
X140261429Y-119728214D01*
X140232857Y-119671071D01*
X140204286Y-119556786D01*
X140204286Y-119471071D01*
X140232857Y-119356786D01*
X140261429Y-119299643D01*
X140318571Y-119242500D01*
X140404286Y-119213929D01*
X140461429Y-119213929D01*
X140547143Y-119242500D01*
X140575714Y-119271071D01*
X140918571Y-119813929D02*
X140861429Y-119785357D01*
X140832857Y-119756786D01*
X140804286Y-119699643D01*
X140804286Y-119528214D01*
X140832857Y-119471071D01*
X140861429Y-119442500D01*
X140918571Y-119413929D01*
X141004286Y-119413929D01*
X141061429Y-119442500D01*
X141090000Y-119471071D01*
X141118571Y-119528214D01*
X141118571Y-119699643D01*
X141090000Y-119756786D01*
X141061429Y-119785357D01*
X141004286Y-119813929D01*
X140918571Y-119813929D01*
X141375714Y-119413929D02*
X141375714Y-119813929D01*
X141375714Y-119471071D02*
X141404286Y-119442500D01*
X141461428Y-119413929D01*
X141547143Y-119413929D01*
X141604286Y-119442500D01*
X141632857Y-119499643D01*
X141632857Y-119813929D01*
X141832857Y-119413929D02*
X142061428Y-119413929D01*
X141918571Y-119213929D02*
X141918571Y-119728214D01*
X141947143Y-119785357D01*
X142004285Y-119813929D01*
X142061428Y-119813929D01*
X142261428Y-119813929D02*
X142261428Y-119413929D01*
X142261428Y-119528214D02*
X142290000Y-119471071D01*
X142318571Y-119442500D01*
X142375714Y-119413929D01*
X142432857Y-119413929D01*
X142718571Y-119813929D02*
X142661429Y-119785357D01*
X142632857Y-119756786D01*
X142604286Y-119699643D01*
X142604286Y-119528214D01*
X142632857Y-119471071D01*
X142661429Y-119442500D01*
X142718571Y-119413929D01*
X142804286Y-119413929D01*
X142861429Y-119442500D01*
X142890000Y-119471071D01*
X142918571Y-119528214D01*
X142918571Y-119699643D01*
X142890000Y-119756786D01*
X142861429Y-119785357D01*
X142804286Y-119813929D01*
X142718571Y-119813929D01*
X143261428Y-119813929D02*
X143204286Y-119785357D01*
X143175714Y-119728214D01*
X143175714Y-119213929D01*
X143575714Y-119813929D02*
X143518572Y-119785357D01*
X143490000Y-119728214D01*
X143490000Y-119213929D01*
X144032858Y-119785357D02*
X143975715Y-119813929D01*
X143861429Y-119813929D01*
X143804286Y-119785357D01*
X143775715Y-119728214D01*
X143775715Y-119499643D01*
X143804286Y-119442500D01*
X143861429Y-119413929D01*
X143975715Y-119413929D01*
X144032858Y-119442500D01*
X144061429Y-119499643D01*
X144061429Y-119556786D01*
X143775715Y-119613929D01*
X144318572Y-119813929D02*
X144318572Y-119413929D01*
X144318572Y-119528214D02*
X144347144Y-119471071D01*
X144375715Y-119442500D01*
X144432858Y-119413929D01*
X144490001Y-119413929D01*
X145147144Y-119213929D02*
X145147144Y-119699643D01*
X145175716Y-119756786D01*
X145204287Y-119785357D01*
X145261430Y-119813929D01*
X145375716Y-119813929D01*
X145432858Y-119785357D01*
X145461430Y-119756786D01*
X145490001Y-119699643D01*
X145490001Y-119213929D01*
X145775715Y-119413929D02*
X145775715Y-120013929D01*
X145775715Y-119442500D02*
X145832858Y-119413929D01*
X145947144Y-119413929D01*
X146004287Y-119442500D01*
X146032858Y-119471071D01*
X146061429Y-119528214D01*
X146061429Y-119699643D01*
X146032858Y-119756786D01*
X146004287Y-119785357D01*
X145947144Y-119813929D01*
X145832858Y-119813929D01*
X145775715Y-119785357D01*
X146575715Y-119413929D02*
X146575715Y-119899643D01*
X146547144Y-119956786D01*
X146518572Y-119985357D01*
X146461429Y-120013929D01*
X146375715Y-120013929D01*
X146318572Y-119985357D01*
X146575715Y-119785357D02*
X146518572Y-119813929D01*
X146404286Y-119813929D01*
X146347144Y-119785357D01*
X146318572Y-119756786D01*
X146290001Y-119699643D01*
X146290001Y-119528214D01*
X146318572Y-119471071D01*
X146347144Y-119442500D01*
X146404286Y-119413929D01*
X146518572Y-119413929D01*
X146575715Y-119442500D01*
X146861429Y-119813929D02*
X146861429Y-119413929D01*
X146861429Y-119528214D02*
X146890001Y-119471071D01*
X146918572Y-119442500D01*
X146975715Y-119413929D01*
X147032858Y-119413929D01*
X147490001Y-119813929D02*
X147490001Y-119499643D01*
X147461430Y-119442500D01*
X147404287Y-119413929D01*
X147290001Y-119413929D01*
X147232858Y-119442500D01*
X147490001Y-119785357D02*
X147432858Y-119813929D01*
X147290001Y-119813929D01*
X147232858Y-119785357D01*
X147204287Y-119728214D01*
X147204287Y-119671071D01*
X147232858Y-119613929D01*
X147290001Y-119585357D01*
X147432858Y-119585357D01*
X147490001Y-119556786D01*
X148032858Y-119813929D02*
X148032858Y-119213929D01*
X148032858Y-119785357D02*
X147975715Y-119813929D01*
X147861429Y-119813929D01*
X147804287Y-119785357D01*
X147775715Y-119756786D01*
X147747144Y-119699643D01*
X147747144Y-119528214D01*
X147775715Y-119471071D01*
X147804287Y-119442500D01*
X147861429Y-119413929D01*
X147975715Y-119413929D01*
X148032858Y-119442500D01*
X148547144Y-119785357D02*
X148490001Y-119813929D01*
X148375715Y-119813929D01*
X148318572Y-119785357D01*
X148290001Y-119728214D01*
X148290001Y-119499643D01*
X148318572Y-119442500D01*
X148375715Y-119413929D01*
X148490001Y-119413929D01*
X148547144Y-119442500D01*
X148575715Y-119499643D01*
X148575715Y-119556786D01*
X148290001Y-119613929D01*
X139518571Y-99474286D02*
X139118571Y-99474286D01*
X139747143Y-99331429D02*
X139318571Y-99188572D01*
X139318571Y-99560000D01*
X139718571Y-104250000D02*
X139718571Y-104621429D01*
X139490000Y-104421429D01*
X139490000Y-104507143D01*
X139461429Y-104564286D01*
X139432857Y-104592857D01*
X139375714Y-104621429D01*
X139232857Y-104621429D01*
X139175714Y-104592857D01*
X139147143Y-104564286D01*
X139118571Y-104507143D01*
X139118571Y-104335715D01*
X139147143Y-104278572D01*
X139175714Y-104250000D01*
X139661429Y-109328572D02*
X139690000Y-109357143D01*
X139718571Y-109414286D01*
X139718571Y-109557143D01*
X139690000Y-109614286D01*
X139661429Y-109642857D01*
X139604286Y-109671429D01*
X139547143Y-109671429D01*
X139461429Y-109642857D01*
X139118571Y-109300000D01*
X139118571Y-109671429D01*
X139128571Y-114781429D02*
X139128571Y-114438572D01*
X139128571Y-114610000D02*
X139728571Y-114610000D01*
X139642857Y-114552857D01*
X139585714Y-114495715D01*
X139557143Y-114438572D01*
D12*
X128701905Y-107182382D02*
X130001905Y-107182382D01*
X128701905Y-107925239D01*
X130001905Y-107925239D01*
X128701905Y-108730001D02*
X128763810Y-108606192D01*
X128825714Y-108544287D01*
X128949524Y-108482382D01*
X129320952Y-108482382D01*
X129444762Y-108544287D01*
X129506667Y-108606192D01*
X129568571Y-108730001D01*
X129568571Y-108915715D01*
X129506667Y-109039525D01*
X129444762Y-109101430D01*
X129320952Y-109163334D01*
X128949524Y-109163334D01*
X128825714Y-109101430D01*
X128763810Y-109039525D01*
X128701905Y-108915715D01*
X128701905Y-108730001D01*
X129568571Y-109596667D02*
X128701905Y-109906191D01*
X129568571Y-110215715D01*
X128763810Y-111206191D02*
X128701905Y-111082381D01*
X128701905Y-110834762D01*
X128763810Y-110710953D01*
X128887619Y-110649048D01*
X129382857Y-110649048D01*
X129506667Y-110710953D01*
X129568571Y-110834762D01*
X129568571Y-111082381D01*
X129506667Y-111206191D01*
X129382857Y-111268096D01*
X129259048Y-111268096D01*
X129135238Y-110649048D01*
X128701905Y-111825239D02*
X129568571Y-111825239D01*
X129444762Y-111825239D02*
X129506667Y-111887144D01*
X129568571Y-112010953D01*
X129568571Y-112196667D01*
X129506667Y-112320477D01*
X129382857Y-112382382D01*
X128701905Y-112382382D01*
X129382857Y-112382382D02*
X129506667Y-112444286D01*
X129568571Y-112568096D01*
X129568571Y-112753810D01*
X129506667Y-112877620D01*
X129382857Y-112939525D01*
X128701905Y-112939525D01*
X128701905Y-113558572D02*
X130001905Y-113558572D01*
X129506667Y-113558572D02*
X129568571Y-113682381D01*
X129568571Y-113930000D01*
X129506667Y-114053810D01*
X129444762Y-114115715D01*
X129320952Y-114177619D01*
X128949524Y-114177619D01*
X128825714Y-114115715D01*
X128763810Y-114053810D01*
X128701905Y-113930000D01*
X128701905Y-113682381D01*
X128763810Y-113558572D01*
X128763810Y-115230000D02*
X128701905Y-115106190D01*
X128701905Y-114858571D01*
X128763810Y-114734762D01*
X128887619Y-114672857D01*
X129382857Y-114672857D01*
X129506667Y-114734762D01*
X129568571Y-114858571D01*
X129568571Y-115106190D01*
X129506667Y-115230000D01*
X129382857Y-115291905D01*
X129259048Y-115291905D01*
X129135238Y-114672857D01*
X128701905Y-115849048D02*
X129568571Y-115849048D01*
X129320952Y-115849048D02*
X129444762Y-115910953D01*
X129506667Y-115972857D01*
X129568571Y-116096667D01*
X129568571Y-116220476D01*
X129878095Y-117582381D02*
X129940000Y-117644286D01*
X130001905Y-117768095D01*
X130001905Y-118077619D01*
X129940000Y-118201429D01*
X129878095Y-118263333D01*
X129754286Y-118325238D01*
X129630476Y-118325238D01*
X129444762Y-118263333D01*
X128701905Y-117520476D01*
X128701905Y-118325238D01*
X130001905Y-119130000D02*
X130001905Y-119253809D01*
X129940000Y-119377619D01*
X129878095Y-119439524D01*
X129754286Y-119501428D01*
X129506667Y-119563333D01*
X129197143Y-119563333D01*
X128949524Y-119501428D01*
X128825714Y-119439524D01*
X128763810Y-119377619D01*
X128701905Y-119253809D01*
X128701905Y-119130000D01*
X128763810Y-119006190D01*
X128825714Y-118944286D01*
X128949524Y-118882381D01*
X129197143Y-118820476D01*
X129506667Y-118820476D01*
X129754286Y-118882381D01*
X129878095Y-118944286D01*
X129940000Y-119006190D01*
X130001905Y-119130000D01*
X128701905Y-120801428D02*
X128701905Y-120058571D01*
X128701905Y-120430000D02*
X130001905Y-120430000D01*
X129816190Y-120306190D01*
X129692381Y-120182381D01*
X129630476Y-120058571D01*
X130001905Y-121915714D02*
X130001905Y-121668095D01*
X129940000Y-121544285D01*
X129878095Y-121482380D01*
X129692381Y-121358571D01*
X129444762Y-121296666D01*
X128949524Y-121296666D01*
X128825714Y-121358571D01*
X128763810Y-121420476D01*
X128701905Y-121544285D01*
X128701905Y-121791904D01*
X128763810Y-121915714D01*
X128825714Y-121977618D01*
X128949524Y-122039523D01*
X129259048Y-122039523D01*
X129382857Y-121977618D01*
X129444762Y-121915714D01*
X129506667Y-121791904D01*
X129506667Y-121544285D01*
X129444762Y-121420476D01*
X129382857Y-121358571D01*
X129259048Y-121296666D01*
X137775240Y-87283095D02*
X138518097Y-87283095D01*
X138146668Y-88583095D02*
X138146668Y-87283095D01*
X139013335Y-88583095D02*
X139260954Y-88583095D01*
X139384763Y-88521190D01*
X139446668Y-88459286D01*
X139570477Y-88273571D01*
X139632382Y-88025952D01*
X139632382Y-87530714D01*
X139570477Y-87406905D01*
X139508573Y-87345000D01*
X139384763Y-87283095D01*
X139137144Y-87283095D01*
X139013335Y-87345000D01*
X138951430Y-87406905D01*
X138889525Y-87530714D01*
X138889525Y-87840238D01*
X138951430Y-87964048D01*
X139013335Y-88025952D01*
X139137144Y-88087857D01*
X139384763Y-88087857D01*
X139508573Y-88025952D01*
X139570477Y-87964048D01*
X139632382Y-87840238D01*
X140746668Y-87283095D02*
X140499049Y-87283095D01*
X140375239Y-87345000D01*
X140313334Y-87406905D01*
X140189525Y-87592619D01*
X140127620Y-87840238D01*
X140127620Y-88335476D01*
X140189525Y-88459286D01*
X140251430Y-88521190D01*
X140375239Y-88583095D01*
X140622858Y-88583095D01*
X140746668Y-88521190D01*
X140808572Y-88459286D01*
X140870477Y-88335476D01*
X140870477Y-88025952D01*
X140808572Y-87902143D01*
X140746668Y-87840238D01*
X140622858Y-87778333D01*
X140375239Y-87778333D01*
X140251430Y-87840238D01*
X140189525Y-87902143D01*
X140127620Y-88025952D01*
X141365715Y-87406905D02*
X141427620Y-87345000D01*
X141551429Y-87283095D01*
X141860953Y-87283095D01*
X141984763Y-87345000D01*
X142046667Y-87406905D01*
X142108572Y-87530714D01*
X142108572Y-87654524D01*
X142046667Y-87840238D01*
X141303810Y-88583095D01*
X142108572Y-88583095D01*
X144584762Y-87221190D02*
X143470477Y-88892619D01*
X145822858Y-87283095D02*
X146565715Y-87283095D01*
X146194286Y-88583095D02*
X146194286Y-87283095D01*
X147060953Y-88583095D02*
X147308572Y-88583095D01*
X147432381Y-88521190D01*
X147494286Y-88459286D01*
X147618095Y-88273571D01*
X147680000Y-88025952D01*
X147680000Y-87530714D01*
X147618095Y-87406905D01*
X147556191Y-87345000D01*
X147432381Y-87283095D01*
X147184762Y-87283095D01*
X147060953Y-87345000D01*
X146999048Y-87406905D01*
X146937143Y-87530714D01*
X146937143Y-87840238D01*
X146999048Y-87964048D01*
X147060953Y-88025952D01*
X147184762Y-88087857D01*
X147432381Y-88087857D01*
X147556191Y-88025952D01*
X147618095Y-87964048D01*
X147680000Y-87840238D01*
X148794286Y-87283095D02*
X148546667Y-87283095D01*
X148422857Y-87345000D01*
X148360952Y-87406905D01*
X148237143Y-87592619D01*
X148175238Y-87840238D01*
X148175238Y-88335476D01*
X148237143Y-88459286D01*
X148299048Y-88521190D01*
X148422857Y-88583095D01*
X148670476Y-88583095D01*
X148794286Y-88521190D01*
X148856190Y-88459286D01*
X148918095Y-88335476D01*
X148918095Y-88025952D01*
X148856190Y-87902143D01*
X148794286Y-87840238D01*
X148670476Y-87778333D01*
X148422857Y-87778333D01*
X148299048Y-87840238D01*
X148237143Y-87902143D01*
X148175238Y-88025952D01*
X149413333Y-87406905D02*
X149475238Y-87345000D01*
X149599047Y-87283095D01*
X149908571Y-87283095D01*
X150032381Y-87345000D01*
X150094285Y-87406905D01*
X150156190Y-87530714D01*
X150156190Y-87654524D01*
X150094285Y-87840238D01*
X149351428Y-88583095D01*
X150156190Y-88583095D01*
X150651428Y-88211667D02*
X151270476Y-88211667D01*
X150527619Y-88583095D02*
X150960952Y-87283095D01*
X151394285Y-88583095D01*
X134865716Y-89533095D02*
X134865716Y-90585476D01*
X134927621Y-90709286D01*
X134989525Y-90771190D01*
X135113335Y-90833095D01*
X135360954Y-90833095D01*
X135484763Y-90771190D01*
X135546668Y-90709286D01*
X135608573Y-90585476D01*
X135608573Y-89533095D01*
X136227621Y-89966429D02*
X136227621Y-91266429D01*
X136227621Y-90028333D02*
X136351430Y-89966429D01*
X136599049Y-89966429D01*
X136722859Y-90028333D01*
X136784764Y-90090238D01*
X136846668Y-90214048D01*
X136846668Y-90585476D01*
X136784764Y-90709286D01*
X136722859Y-90771190D01*
X136599049Y-90833095D01*
X136351430Y-90833095D01*
X136227621Y-90771190D01*
X137960954Y-89966429D02*
X137960954Y-91018810D01*
X137899049Y-91142619D01*
X137837144Y-91204524D01*
X137713335Y-91266429D01*
X137527620Y-91266429D01*
X137403811Y-91204524D01*
X137960954Y-90771190D02*
X137837144Y-90833095D01*
X137589525Y-90833095D01*
X137465716Y-90771190D01*
X137403811Y-90709286D01*
X137341906Y-90585476D01*
X137341906Y-90214048D01*
X137403811Y-90090238D01*
X137465716Y-90028333D01*
X137589525Y-89966429D01*
X137837144Y-89966429D01*
X137960954Y-90028333D01*
X138580001Y-90833095D02*
X138580001Y-89966429D01*
X138580001Y-90214048D02*
X138641906Y-90090238D01*
X138703810Y-90028333D01*
X138827620Y-89966429D01*
X138951429Y-89966429D01*
X139941906Y-90833095D02*
X139941906Y-90152143D01*
X139880001Y-90028333D01*
X139756191Y-89966429D01*
X139508572Y-89966429D01*
X139384763Y-90028333D01*
X139941906Y-90771190D02*
X139818096Y-90833095D01*
X139508572Y-90833095D01*
X139384763Y-90771190D01*
X139322858Y-90647381D01*
X139322858Y-90523571D01*
X139384763Y-90399762D01*
X139508572Y-90337857D01*
X139818096Y-90337857D01*
X139941906Y-90275952D01*
X141118096Y-90833095D02*
X141118096Y-89533095D01*
X141118096Y-90771190D02*
X140994286Y-90833095D01*
X140746667Y-90833095D01*
X140622858Y-90771190D01*
X140560953Y-90709286D01*
X140499048Y-90585476D01*
X140499048Y-90214048D01*
X140560953Y-90090238D01*
X140622858Y-90028333D01*
X140746667Y-89966429D01*
X140994286Y-89966429D01*
X141118096Y-90028333D01*
X142232381Y-90771190D02*
X142108571Y-90833095D01*
X141860952Y-90833095D01*
X141737143Y-90771190D01*
X141675238Y-90647381D01*
X141675238Y-90152143D01*
X141737143Y-90028333D01*
X141860952Y-89966429D01*
X142108571Y-89966429D01*
X142232381Y-90028333D01*
X142294286Y-90152143D01*
X142294286Y-90275952D01*
X141675238Y-90399762D01*
X144275238Y-90152143D02*
X144460952Y-90214048D01*
X144522857Y-90275952D01*
X144584762Y-90399762D01*
X144584762Y-90585476D01*
X144522857Y-90709286D01*
X144460952Y-90771190D01*
X144337143Y-90833095D01*
X143841905Y-90833095D01*
X143841905Y-89533095D01*
X144275238Y-89533095D01*
X144399048Y-89595000D01*
X144460952Y-89656905D01*
X144522857Y-89780714D01*
X144522857Y-89904524D01*
X144460952Y-90028333D01*
X144399048Y-90090238D01*
X144275238Y-90152143D01*
X143841905Y-90152143D01*
X145327619Y-90833095D02*
X145203810Y-90771190D01*
X145141905Y-90709286D01*
X145080000Y-90585476D01*
X145080000Y-90214048D01*
X145141905Y-90090238D01*
X145203810Y-90028333D01*
X145327619Y-89966429D01*
X145513333Y-89966429D01*
X145637143Y-90028333D01*
X145699048Y-90090238D01*
X145760952Y-90214048D01*
X145760952Y-90585476D01*
X145699048Y-90709286D01*
X145637143Y-90771190D01*
X145513333Y-90833095D01*
X145327619Y-90833095D01*
X146875238Y-90833095D02*
X146875238Y-90152143D01*
X146813333Y-90028333D01*
X146689523Y-89966429D01*
X146441904Y-89966429D01*
X146318095Y-90028333D01*
X146875238Y-90771190D02*
X146751428Y-90833095D01*
X146441904Y-90833095D01*
X146318095Y-90771190D01*
X146256190Y-90647381D01*
X146256190Y-90523571D01*
X146318095Y-90399762D01*
X146441904Y-90337857D01*
X146751428Y-90337857D01*
X146875238Y-90275952D01*
X147494285Y-90833095D02*
X147494285Y-89966429D01*
X147494285Y-90214048D02*
X147556190Y-90090238D01*
X147618094Y-90028333D01*
X147741904Y-89966429D01*
X147865713Y-89966429D01*
X148856190Y-90833095D02*
X148856190Y-89533095D01*
X148856190Y-90771190D02*
X148732380Y-90833095D01*
X148484761Y-90833095D01*
X148360952Y-90771190D01*
X148299047Y-90709286D01*
X148237142Y-90585476D01*
X148237142Y-90214048D01*
X148299047Y-90090238D01*
X148360952Y-90028333D01*
X148484761Y-89966429D01*
X148732380Y-89966429D01*
X148856190Y-90028333D01*
X150279999Y-89533095D02*
X150713332Y-90833095D01*
X151146665Y-89533095D01*
X151827618Y-89533095D02*
X151951427Y-89533095D01*
X152075237Y-89595000D01*
X152137142Y-89656905D01*
X152199046Y-89780714D01*
X152260951Y-90028333D01*
X152260951Y-90337857D01*
X152199046Y-90585476D01*
X152137142Y-90709286D01*
X152075237Y-90771190D01*
X151951427Y-90833095D01*
X151827618Y-90833095D01*
X151703808Y-90771190D01*
X151641904Y-90709286D01*
X151579999Y-90585476D01*
X151518094Y-90337857D01*
X151518094Y-90028333D01*
X151579999Y-89780714D01*
X151641904Y-89656905D01*
X151703808Y-89595000D01*
X151827618Y-89533095D01*
X152818094Y-90709286D02*
X152879999Y-90771190D01*
X152818094Y-90833095D01*
X152756189Y-90771190D01*
X152818094Y-90709286D01*
X152818094Y-90833095D01*
X153684761Y-89533095D02*
X153808570Y-89533095D01*
X153932380Y-89595000D01*
X153994285Y-89656905D01*
X154056189Y-89780714D01*
X154118094Y-90028333D01*
X154118094Y-90337857D01*
X154056189Y-90585476D01*
X153994285Y-90709286D01*
X153932380Y-90771190D01*
X153808570Y-90833095D01*
X153684761Y-90833095D01*
X153560951Y-90771190D01*
X153499047Y-90709286D01*
X153437142Y-90585476D01*
X153375237Y-90337857D01*
X153375237Y-90028333D01*
X153437142Y-89780714D01*
X153499047Y-89656905D01*
X153560951Y-89595000D01*
X153684761Y-89533095D01*
X154613332Y-89656905D02*
X154675237Y-89595000D01*
X154799046Y-89533095D01*
X155108570Y-89533095D01*
X155232380Y-89595000D01*
X155294284Y-89656905D01*
X155356189Y-89780714D01*
X155356189Y-89904524D01*
X155294284Y-90090238D01*
X154551427Y-90833095D01*
X155356189Y-90833095D01*
D11*
X149952857Y-109067618D02*
X149952857Y-109334285D01*
X150371905Y-109334285D02*
X149571905Y-109334285D01*
X149571905Y-108953332D01*
X150143333Y-108686666D02*
X150143333Y-108305714D01*
X150371905Y-108762857D02*
X149571905Y-108496190D01*
X150371905Y-108229523D01*
X150371905Y-107962857D02*
X149571905Y-107962857D01*
X150371905Y-107505714D01*
X149571905Y-107505714D01*
X139115238Y-113387143D02*
X139724762Y-113387143D01*
X139115238Y-115924286D02*
X139724762Y-115924286D01*
X139420000Y-116267143D02*
X139420000Y-115581429D01*
X139115238Y-108277143D02*
X139724762Y-108277143D01*
X139115238Y-110804286D02*
X139724762Y-110804286D01*
X139420000Y-111147143D02*
X139420000Y-110461429D01*
X139115238Y-103237143D02*
X139724762Y-103237143D01*
X139115238Y-105774286D02*
X139724762Y-105774286D01*
X139420000Y-106117143D02*
X139420000Y-105431429D01*
X140467143Y-121263810D02*
X140124286Y-121263810D01*
X140295715Y-120763810D02*
X140295715Y-121263810D01*
X139981429Y-121263810D02*
X139581429Y-120763810D01*
X139581429Y-121263810D02*
X139981429Y-120763810D01*
X141533333Y-120773810D02*
X141700000Y-121011905D01*
X141819047Y-120773810D02*
X141819047Y-121273810D01*
X141628571Y-121273810D01*
X141580952Y-121250000D01*
X141557143Y-121226190D01*
X141533333Y-121178571D01*
X141533333Y-121107143D01*
X141557143Y-121059524D01*
X141580952Y-121035714D01*
X141628571Y-121011905D01*
X141819047Y-121011905D01*
X141366666Y-121273810D02*
X141033333Y-120773810D01*
X141033333Y-121273810D02*
X141366666Y-120773810D01*
X133407142Y-94318929D02*
X133407142Y-93718929D01*
X133749999Y-94318929D01*
X133749999Y-93718929D01*
X134121427Y-94318929D02*
X134064285Y-94290357D01*
X134035713Y-94261786D01*
X134007142Y-94204643D01*
X134007142Y-94033214D01*
X134035713Y-93976071D01*
X134064285Y-93947500D01*
X134121427Y-93918929D01*
X134207142Y-93918929D01*
X134264285Y-93947500D01*
X134292856Y-93976071D01*
X134321427Y-94033214D01*
X134321427Y-94204643D01*
X134292856Y-94261786D01*
X134264285Y-94290357D01*
X134207142Y-94318929D01*
X134121427Y-94318929D01*
X134521427Y-93918929D02*
X134664284Y-94318929D01*
X134807142Y-93918929D01*
X135464285Y-93776071D02*
X135492856Y-93747500D01*
X135549999Y-93718929D01*
X135692856Y-93718929D01*
X135749999Y-93747500D01*
X135778570Y-93776071D01*
X135807142Y-93833214D01*
X135807142Y-93890357D01*
X135778570Y-93976071D01*
X135435713Y-94318929D01*
X135807142Y-94318929D01*
X136178571Y-93718929D02*
X136235714Y-93718929D01*
X136292857Y-93747500D01*
X136321428Y-93776071D01*
X136349999Y-93833214D01*
X136378571Y-93947500D01*
X136378571Y-94090357D01*
X136349999Y-94204643D01*
X136321428Y-94261786D01*
X136292857Y-94290357D01*
X136235714Y-94318929D01*
X136178571Y-94318929D01*
X136121428Y-94290357D01*
X136092857Y-94261786D01*
X136064285Y-94204643D01*
X136035714Y-94090357D01*
X136035714Y-93947500D01*
X136064285Y-93833214D01*
X136092857Y-93776071D01*
X136121428Y-93747500D01*
X136178571Y-93718929D01*
X136950000Y-94318929D02*
X136607143Y-94318929D01*
X136778571Y-94318929D02*
X136778571Y-93718929D01*
X136721428Y-93804643D01*
X136664286Y-93861786D01*
X136607143Y-93890357D01*
X137464286Y-93718929D02*
X137350000Y-93718929D01*
X137292857Y-93747500D01*
X137264286Y-93776071D01*
X137207143Y-93861786D01*
X137178572Y-93976071D01*
X137178572Y-94204643D01*
X137207143Y-94261786D01*
X137235715Y-94290357D01*
X137292857Y-94318929D01*
X137407143Y-94318929D01*
X137464286Y-94290357D01*
X137492857Y-94261786D01*
X137521429Y-94204643D01*
X137521429Y-94061786D01*
X137492857Y-94004643D01*
X137464286Y-93976071D01*
X137407143Y-93947500D01*
X137292857Y-93947500D01*
X137235715Y-93976071D01*
X137207143Y-94004643D01*
X137178572Y-94061786D01*
X134250000Y-94743929D02*
X134450000Y-95343929D01*
X134650000Y-94743929D01*
X134964286Y-94743929D02*
X135021429Y-94743929D01*
X135078572Y-94772500D01*
X135107143Y-94801071D01*
X135135714Y-94858214D01*
X135164286Y-94972500D01*
X135164286Y-95115357D01*
X135135714Y-95229643D01*
X135107143Y-95286786D01*
X135078572Y-95315357D01*
X135021429Y-95343929D01*
X134964286Y-95343929D01*
X134907143Y-95315357D01*
X134878572Y-95286786D01*
X134850000Y-95229643D01*
X134821429Y-95115357D01*
X134821429Y-94972500D01*
X134850000Y-94858214D01*
X134878572Y-94801071D01*
X134907143Y-94772500D01*
X134964286Y-94743929D01*
X135421429Y-95286786D02*
X135450001Y-95315357D01*
X135421429Y-95343929D01*
X135392858Y-95315357D01*
X135421429Y-95286786D01*
X135421429Y-95343929D01*
X135821429Y-94743929D02*
X135878572Y-94743929D01*
X135935715Y-94772500D01*
X135964286Y-94801071D01*
X135992857Y-94858214D01*
X136021429Y-94972500D01*
X136021429Y-95115357D01*
X135992857Y-95229643D01*
X135964286Y-95286786D01*
X135935715Y-95315357D01*
X135878572Y-95343929D01*
X135821429Y-95343929D01*
X135764286Y-95315357D01*
X135735715Y-95286786D01*
X135707143Y-95229643D01*
X135678572Y-95115357D01*
X135678572Y-94972500D01*
X135707143Y-94858214D01*
X135735715Y-94801071D01*
X135764286Y-94772500D01*
X135821429Y-94743929D01*
X136250001Y-94801071D02*
X136278572Y-94772500D01*
X136335715Y-94743929D01*
X136478572Y-94743929D01*
X136535715Y-94772500D01*
X136564286Y-94801071D01*
X136592858Y-94858214D01*
X136592858Y-94915357D01*
X136564286Y-95001071D01*
X136221429Y-95343929D01*
X136592858Y-95343929D01*
D13*
X140627143Y-141127619D02*
X140674762Y-141080000D01*
X140770000Y-141032381D01*
X141008096Y-141032381D01*
X141103334Y-141080000D01*
X141150953Y-141127619D01*
X141198572Y-141222857D01*
X141198572Y-141318095D01*
X141150953Y-141460952D01*
X140579524Y-142032381D01*
X141198572Y-142032381D01*
X142055715Y-141365714D02*
X142055715Y-142032381D01*
X141817619Y-140984762D02*
X141579524Y-141699048D01*
X142198572Y-141699048D01*
X142579524Y-141937143D02*
X142627143Y-141984762D01*
X142579524Y-142032381D01*
X142531905Y-141984762D01*
X142579524Y-141937143D01*
X142579524Y-142032381D01*
X143103333Y-142032381D02*
X143293809Y-142032381D01*
X143389048Y-141984762D01*
X143436667Y-141937143D01*
X143531905Y-141794286D01*
X143579524Y-141603810D01*
X143579524Y-141222857D01*
X143531905Y-141127619D01*
X143484286Y-141080000D01*
X143389048Y-141032381D01*
X143198571Y-141032381D01*
X143103333Y-141080000D01*
X143055714Y-141127619D01*
X143008095Y-141222857D01*
X143008095Y-141460952D01*
X143055714Y-141556190D01*
X143103333Y-141603810D01*
X143198571Y-141651429D01*
X143389048Y-141651429D01*
X143484286Y-141603810D01*
X143531905Y-141556190D01*
X143579524Y-141460952D01*
X144198571Y-141032381D02*
X144293810Y-141032381D01*
X144389048Y-141080000D01*
X144436667Y-141127619D01*
X144484286Y-141222857D01*
X144531905Y-141413333D01*
X144531905Y-141651429D01*
X144484286Y-141841905D01*
X144436667Y-141937143D01*
X144389048Y-141984762D01*
X144293810Y-142032381D01*
X144198571Y-142032381D01*
X144103333Y-141984762D01*
X144055714Y-141937143D01*
X144008095Y-141841905D01*
X143960476Y-141651429D01*
X143960476Y-141413333D01*
X144008095Y-141222857D01*
X144055714Y-141127619D01*
X144103333Y-141080000D01*
X144198571Y-141032381D01*
X145150952Y-141032381D02*
X145246191Y-141032381D01*
X145341429Y-141080000D01*
X145389048Y-141127619D01*
X145436667Y-141222857D01*
X145484286Y-141413333D01*
X145484286Y-141651429D01*
X145436667Y-141841905D01*
X145389048Y-141937143D01*
X145341429Y-141984762D01*
X145246191Y-142032381D01*
X145150952Y-142032381D01*
X145055714Y-141984762D01*
X145008095Y-141937143D01*
X144960476Y-141841905D01*
X144912857Y-141651429D01*
X144912857Y-141413333D01*
X144960476Y-141222857D01*
X145008095Y-141127619D01*
X145055714Y-141080000D01*
X145150952Y-141032381D01*
X146674762Y-142032381D02*
X146674762Y-141365714D01*
X146674762Y-141460952D02*
X146722381Y-141413333D01*
X146817619Y-141365714D01*
X146960477Y-141365714D01*
X147055715Y-141413333D01*
X147103334Y-141508571D01*
X147103334Y-142032381D01*
X147103334Y-141508571D02*
X147150953Y-141413333D01*
X147246191Y-141365714D01*
X147389048Y-141365714D01*
X147484286Y-141413333D01*
X147531905Y-141508571D01*
X147531905Y-142032381D01*
X148008095Y-142032381D02*
X148008095Y-141365714D01*
X148008095Y-141460952D02*
X148055714Y-141413333D01*
X148150952Y-141365714D01*
X148293810Y-141365714D01*
X148389048Y-141413333D01*
X148436667Y-141508571D01*
X148436667Y-142032381D01*
X148436667Y-141508571D02*
X148484286Y-141413333D01*
X148579524Y-141365714D01*
X148722381Y-141365714D01*
X148817619Y-141413333D01*
X148865238Y-141508571D01*
X148865238Y-142032381D01*
X132320000Y-140230000D02*
X157220000Y-140230000D01*
X132320000Y-137620000D02*
X132320000Y-142930000D01*
X157220000Y-137620000D02*
X157220000Y-142930000D01*
X157220000Y-140230000D02*
X156093496Y-140816421D01*
X157220000Y-140230000D02*
X156093496Y-139643579D01*
X132320000Y-140230000D02*
X133446504Y-140816421D01*
X132320000Y-140230000D02*
X133446504Y-139643579D01*
X160195714Y-118356666D02*
X160862381Y-118356666D01*
X159814762Y-118594762D02*
X160529048Y-118832857D01*
X160529048Y-118213809D01*
X159862381Y-117928095D02*
X159862381Y-117309047D01*
X160243333Y-117642381D01*
X160243333Y-117499523D01*
X160290952Y-117404285D01*
X160338571Y-117356666D01*
X160433810Y-117309047D01*
X160671905Y-117309047D01*
X160767143Y-117356666D01*
X160814762Y-117404285D01*
X160862381Y-117499523D01*
X160862381Y-117785238D01*
X160814762Y-117880476D01*
X160767143Y-117928095D01*
X160767143Y-116880476D02*
X160814762Y-116832857D01*
X160862381Y-116880476D01*
X160814762Y-116928095D01*
X160767143Y-116880476D01*
X160862381Y-116880476D01*
X159862381Y-115928095D02*
X159862381Y-116404286D01*
X160338571Y-116451905D01*
X160290952Y-116404286D01*
X160243333Y-116309048D01*
X160243333Y-116070952D01*
X160290952Y-115975714D01*
X160338571Y-115928095D01*
X160433810Y-115880476D01*
X160671905Y-115880476D01*
X160767143Y-115928095D01*
X160814762Y-115975714D01*
X160862381Y-116070952D01*
X160862381Y-116309048D01*
X160814762Y-116404286D01*
X160767143Y-116451905D01*
X160290952Y-115309048D02*
X160243333Y-115404286D01*
X160195714Y-115451905D01*
X160100476Y-115499524D01*
X160052857Y-115499524D01*
X159957619Y-115451905D01*
X159910000Y-115404286D01*
X159862381Y-115309048D01*
X159862381Y-115118571D01*
X159910000Y-115023333D01*
X159957619Y-114975714D01*
X160052857Y-114928095D01*
X160100476Y-114928095D01*
X160195714Y-114975714D01*
X160243333Y-115023333D01*
X160290952Y-115118571D01*
X160290952Y-115309048D01*
X160338571Y-115404286D01*
X160386190Y-115451905D01*
X160481429Y-115499524D01*
X160671905Y-115499524D01*
X160767143Y-115451905D01*
X160814762Y-115404286D01*
X160862381Y-115309048D01*
X160862381Y-115118571D01*
X160814762Y-115023333D01*
X160767143Y-114975714D01*
X160671905Y-114928095D01*
X160481429Y-114928095D01*
X160386190Y-114975714D01*
X160338571Y-115023333D01*
X160290952Y-115118571D01*
X159862381Y-114309048D02*
X159862381Y-114213809D01*
X159910000Y-114118571D01*
X159957619Y-114070952D01*
X160052857Y-114023333D01*
X160243333Y-113975714D01*
X160481429Y-113975714D01*
X160671905Y-114023333D01*
X160767143Y-114070952D01*
X160814762Y-114118571D01*
X160862381Y-114213809D01*
X160862381Y-114309048D01*
X160814762Y-114404286D01*
X160767143Y-114451905D01*
X160671905Y-114499524D01*
X160481429Y-114547143D01*
X160243333Y-114547143D01*
X160052857Y-114499524D01*
X159957619Y-114451905D01*
X159910000Y-114404286D01*
X159862381Y-114309048D01*
X160862381Y-112785238D02*
X160195714Y-112785238D01*
X160290952Y-112785238D02*
X160243333Y-112737619D01*
X160195714Y-112642381D01*
X160195714Y-112499523D01*
X160243333Y-112404285D01*
X160338571Y-112356666D01*
X160862381Y-112356666D01*
X160338571Y-112356666D02*
X160243333Y-112309047D01*
X160195714Y-112213809D01*
X160195714Y-112070952D01*
X160243333Y-111975714D01*
X160338571Y-111928095D01*
X160862381Y-111928095D01*
X160862381Y-111451905D02*
X160195714Y-111451905D01*
X160290952Y-111451905D02*
X160243333Y-111404286D01*
X160195714Y-111309048D01*
X160195714Y-111166190D01*
X160243333Y-111070952D01*
X160338571Y-111023333D01*
X160862381Y-111023333D01*
X160338571Y-111023333D02*
X160243333Y-110975714D01*
X160195714Y-110880476D01*
X160195714Y-110737619D01*
X160243333Y-110642381D01*
X160338571Y-110594762D01*
X160862381Y-110594762D01*
X159060000Y-136480000D02*
X159060000Y-92900000D01*
X158400000Y-136480000D02*
X161760000Y-136480000D01*
X158400000Y-92900000D02*
X161760000Y-92900000D01*
X159060000Y-92900000D02*
X159646421Y-94026504D01*
X159060000Y-92900000D02*
X158473579Y-94026504D01*
X159060000Y-136480000D02*
X159646421Y-135353496D01*
X159060000Y-136480000D02*
X158473579Y-135353496D01*
D11*
X139165238Y-100724286D02*
X139774762Y-100724286D01*
X139470000Y-101067143D02*
X139470000Y-100381429D01*
X139125238Y-98127143D02*
X139734762Y-98127143D01*
X139260000Y-97170953D02*
X139236190Y-97218572D01*
X139236190Y-97290000D01*
X139260000Y-97361429D01*
X139307619Y-97409048D01*
X139355238Y-97432857D01*
X139450476Y-97456667D01*
X139521905Y-97456667D01*
X139617143Y-97432857D01*
X139664762Y-97409048D01*
X139712381Y-97361429D01*
X139736190Y-97290000D01*
X139736190Y-97242381D01*
X139712381Y-97170953D01*
X139688571Y-97147143D01*
X139521905Y-97147143D01*
X139521905Y-97242381D01*
X139736190Y-96932857D02*
X139236190Y-96932857D01*
X139736190Y-96647143D01*
X139236190Y-96647143D01*
X139736190Y-96409047D02*
X139236190Y-96409047D01*
X139236190Y-96290000D01*
X139260000Y-96218571D01*
X139307619Y-96170952D01*
X139355238Y-96147143D01*
X139450476Y-96123333D01*
X139521905Y-96123333D01*
X139617143Y-96147143D01*
X139664762Y-96170952D01*
X139712381Y-96218571D01*
X139736190Y-96290000D01*
X139736190Y-96409047D01*
X142246190Y-97113333D02*
X142008095Y-97280000D01*
X142246190Y-97399047D02*
X141746190Y-97399047D01*
X141746190Y-97208571D01*
X141770000Y-97160952D01*
X141793810Y-97137143D01*
X141841429Y-97113333D01*
X141912857Y-97113333D01*
X141960476Y-97137143D01*
X141984286Y-97160952D01*
X142008095Y-97208571D01*
X142008095Y-97399047D01*
X141746190Y-96946666D02*
X142246190Y-96613333D01*
X141746190Y-96613333D02*
X142246190Y-96946666D01*
X142246190Y-96422857D02*
X141746190Y-96422857D01*
X141746190Y-96303810D01*
X141770000Y-96232381D01*
X141817619Y-96184762D01*
X141865238Y-96160953D01*
X141960476Y-96137143D01*
X142031905Y-96137143D01*
X142127143Y-96160953D01*
X142174762Y-96184762D01*
X142222381Y-96232381D01*
X142246190Y-96303810D01*
X142246190Y-96422857D01*
X144266190Y-97350952D02*
X144266190Y-97065238D01*
X144766190Y-97208095D02*
X144266190Y-97208095D01*
X144266190Y-96946190D02*
X144766190Y-96612857D01*
X144266190Y-96612857D02*
X144766190Y-96946190D01*
X144766190Y-96422381D02*
X144266190Y-96422381D01*
X144266190Y-96303334D01*
X144290000Y-96231905D01*
X144337619Y-96184286D01*
X144385238Y-96160477D01*
X144480476Y-96136667D01*
X144551905Y-96136667D01*
X144647143Y-96160477D01*
X144694762Y-96184286D01*
X144742381Y-96231905D01*
X144766190Y-96303334D01*
X144766190Y-96422381D01*
X147036190Y-96973809D02*
X146798095Y-97140476D01*
X147036190Y-97259523D02*
X146536190Y-97259523D01*
X146536190Y-97069047D01*
X146560000Y-97021428D01*
X146583810Y-96997619D01*
X146631429Y-96973809D01*
X146702857Y-96973809D01*
X146750476Y-96997619D01*
X146774286Y-97021428D01*
X146798095Y-97069047D01*
X146798095Y-97259523D01*
X147012381Y-96783333D02*
X147036190Y-96711904D01*
X147036190Y-96592857D01*
X147012381Y-96545238D01*
X146988571Y-96521428D01*
X146940952Y-96497619D01*
X146893333Y-96497619D01*
X146845714Y-96521428D01*
X146821905Y-96545238D01*
X146798095Y-96592857D01*
X146774286Y-96688095D01*
X146750476Y-96735714D01*
X146726667Y-96759523D01*
X146679048Y-96783333D01*
X146631429Y-96783333D01*
X146583810Y-96759523D01*
X146560000Y-96735714D01*
X146536190Y-96688095D01*
X146536190Y-96569047D01*
X146560000Y-96497619D01*
X146536190Y-96354762D02*
X146536190Y-96069048D01*
X147036190Y-96211905D02*
X146536190Y-96211905D01*
X151406190Y-95128094D02*
X150906190Y-95128094D01*
X151382381Y-94913809D02*
X151406190Y-94842380D01*
X151406190Y-94723333D01*
X151382381Y-94675714D01*
X151358571Y-94651904D01*
X151310952Y-94628095D01*
X151263333Y-94628095D01*
X151215714Y-94651904D01*
X151191905Y-94675714D01*
X151168095Y-94723333D01*
X151144286Y-94818571D01*
X151120476Y-94866190D01*
X151096667Y-94889999D01*
X151049048Y-94913809D01*
X151001429Y-94913809D01*
X150953810Y-94889999D01*
X150930000Y-94866190D01*
X150906190Y-94818571D01*
X150906190Y-94699523D01*
X150930000Y-94628095D01*
X151406190Y-94413809D02*
X150906190Y-94413809D01*
X150906190Y-94223333D01*
X150930000Y-94175714D01*
X150953810Y-94151905D01*
X151001429Y-94128095D01*
X151072857Y-94128095D01*
X151120476Y-94151905D01*
X151144286Y-94175714D01*
X151168095Y-94223333D01*
X151168095Y-94413809D01*
D13*
X155432381Y-99414286D02*
X155432381Y-98842857D01*
X156432381Y-99128572D02*
X155432381Y-99128572D01*
X155908571Y-98176190D02*
X155908571Y-98509524D01*
X156432381Y-98509524D02*
X155432381Y-98509524D01*
X155432381Y-98033333D01*
D10*
X154940000Y-97410000D02*
X155260000Y-97410000D01*
X155260000Y-100010000D02*
X154940000Y-100010000D01*
X155260000Y-97410000D02*
X155260000Y-100010000D01*
X155260000Y-97220000D02*
X154940000Y-97220000D01*
X155260000Y-94620000D02*
X155260000Y-97220000D01*
X154940000Y-94620000D02*
X155260000Y-94620000D01*
D13*
X156432381Y-96846190D02*
X155432381Y-96846190D01*
X156384762Y-96417619D02*
X156432381Y-96274762D01*
X156432381Y-96036666D01*
X156384762Y-95941428D01*
X156337143Y-95893809D01*
X156241905Y-95846190D01*
X156146667Y-95846190D01*
X156051429Y-95893809D01*
X156003810Y-95941428D01*
X155956190Y-96036666D01*
X155908571Y-96227143D01*
X155860952Y-96322381D01*
X155813333Y-96370000D01*
X155718095Y-96417619D01*
X155622857Y-96417619D01*
X155527619Y-96370000D01*
X155480000Y-96322381D01*
X155432381Y-96227143D01*
X155432381Y-95989047D01*
X155480000Y-95846190D01*
X156432381Y-95417619D02*
X155432381Y-95417619D01*
X155432381Y-95036666D01*
X155480000Y-94941428D01*
X155527619Y-94893809D01*
X155622857Y-94846190D01*
X155765714Y-94846190D01*
X155860952Y-94893809D01*
X155908571Y-94941428D01*
X155956190Y-95036666D01*
X155956190Y-95417619D01*
D11*
X149501905Y-119562381D02*
X149501905Y-119105238D01*
X150301905Y-119333809D02*
X149501905Y-119333809D01*
X149882857Y-118571904D02*
X149882857Y-118838571D01*
X150301905Y-118838571D02*
X149501905Y-118838571D01*
X149501905Y-118457618D01*
X149578095Y-118190952D02*
X149540000Y-118152857D01*
X149501905Y-118076666D01*
X149501905Y-117886190D01*
X149540000Y-117810000D01*
X149578095Y-117771904D01*
X149654286Y-117733809D01*
X149730476Y-117733809D01*
X149844762Y-117771904D01*
X150301905Y-118229047D01*
X150301905Y-117733809D01*
X149561905Y-116972381D02*
X149561905Y-116515238D01*
X150361905Y-116743809D02*
X149561905Y-116743809D01*
X149942857Y-115981904D02*
X149942857Y-116248571D01*
X150361905Y-116248571D02*
X149561905Y-116248571D01*
X149561905Y-115867618D01*
X150361905Y-115143809D02*
X150361905Y-115600952D01*
X150361905Y-115372381D02*
X149561905Y-115372381D01*
X149676190Y-115448571D01*
X149752381Y-115524762D01*
X149790476Y-115600952D01*
X150351905Y-111387143D02*
X150351905Y-111844286D01*
X150351905Y-111615715D02*
X149551905Y-111615715D01*
X149666190Y-111691905D01*
X149742381Y-111768096D01*
X149780476Y-111844286D01*
X149628095Y-111082381D02*
X149590000Y-111044286D01*
X149551905Y-110968095D01*
X149551905Y-110777619D01*
X149590000Y-110701429D01*
X149628095Y-110663333D01*
X149704286Y-110625238D01*
X149780476Y-110625238D01*
X149894762Y-110663333D01*
X150351905Y-111120476D01*
X150351905Y-110625238D01*
X149818571Y-110358571D02*
X150351905Y-110168095D01*
X149818571Y-109977619D01*
X149600000Y-114159523D02*
X149561905Y-114235714D01*
X149561905Y-114349999D01*
X149600000Y-114464285D01*
X149676190Y-114540476D01*
X149752381Y-114578571D01*
X149904762Y-114616666D01*
X150019048Y-114616666D01*
X150171429Y-114578571D01*
X150247619Y-114540476D01*
X150323810Y-114464285D01*
X150361905Y-114349999D01*
X150361905Y-114273809D01*
X150323810Y-114159523D01*
X150285714Y-114121428D01*
X150019048Y-114121428D01*
X150019048Y-114273809D01*
X150361905Y-113778571D02*
X149561905Y-113778571D01*
X150361905Y-113321428D01*
X149561905Y-113321428D01*
X150361905Y-112940476D02*
X149561905Y-112940476D01*
X149561905Y-112750000D01*
X149600000Y-112635714D01*
X149676190Y-112559523D01*
X149752381Y-112521428D01*
X149904762Y-112483333D01*
X150019048Y-112483333D01*
X150171429Y-112521428D01*
X150247619Y-112559523D01*
X150323810Y-112635714D01*
X150361905Y-112750000D01*
X150361905Y-112940476D01*
X150143333Y-106851428D02*
X150143333Y-106470476D01*
X150371905Y-106927619D02*
X149571905Y-106660952D01*
X150371905Y-106394285D01*
X150371905Y-106127619D02*
X149571905Y-106127619D01*
X149571905Y-105937143D01*
X149610000Y-105822857D01*
X149686190Y-105746666D01*
X149762381Y-105708571D01*
X149914762Y-105670476D01*
X150029048Y-105670476D01*
X150181429Y-105708571D01*
X150257619Y-105746666D01*
X150333810Y-105822857D01*
X150371905Y-105937143D01*
X150371905Y-106127619D01*
X149571905Y-105175238D02*
X149571905Y-105099047D01*
X149610000Y-105022857D01*
X149648095Y-104984762D01*
X149724286Y-104946666D01*
X149876667Y-104908571D01*
X150067143Y-104908571D01*
X150219524Y-104946666D01*
X150295714Y-104984762D01*
X150333810Y-105022857D01*
X150371905Y-105099047D01*
X150371905Y-105175238D01*
X150333810Y-105251428D01*
X150295714Y-105289524D01*
X150219524Y-105327619D01*
X150067143Y-105365714D01*
X149876667Y-105365714D01*
X149724286Y-105327619D01*
X149648095Y-105289524D01*
X149610000Y-105251428D01*
X149571905Y-105175238D01*
X150391905Y-103558571D02*
X150391905Y-104015714D01*
X150391905Y-103787143D02*
X149591905Y-103787143D01*
X149706190Y-103863333D01*
X149782381Y-103939524D01*
X149820476Y-104015714D01*
X149591905Y-103291904D02*
X150391905Y-103101428D01*
X149820476Y-102949047D01*
X150391905Y-102796666D01*
X149591905Y-102606190D01*
D14*
X138909800Y-117378760D02*
X138909800Y-96581240D01*
X138511020Y-96581240D02*
X138511020Y-117378760D01*
X132712200Y-117378760D02*
X132712200Y-96581240D01*
X133210040Y-96581240D02*
X133210040Y-117378760D01*
X133210040Y-106980000D02*
X132712200Y-106980000D01*
X133210040Y-114579680D02*
X132712200Y-114579680D01*
X133210040Y-112080320D02*
X132712200Y-112080320D01*
X133210040Y-109481900D02*
X132712200Y-109481900D01*
X133210040Y-104480640D02*
X132712200Y-104480640D01*
X133210040Y-101882220D02*
X132712200Y-101882220D01*
X132712200Y-96781900D02*
X133210040Y-96781900D01*
X133210040Y-117178100D02*
X132712200Y-117178100D01*
X132712200Y-99385400D02*
X133210040Y-99385400D01*
X132712200Y-117376220D02*
X138909800Y-117376220D01*
X138909800Y-96583780D02*
X132712200Y-96583780D01*
D15*
X140103600Y-99918800D02*
X140916400Y-99918800D01*
X140891000Y-98801200D02*
X140103600Y-98801200D01*
X140916400Y-98547200D02*
X140916400Y-100172800D01*
X140916400Y-100172800D02*
X140103600Y-100172800D01*
X140103600Y-100172800D02*
X140103600Y-98547200D01*
X140103600Y-98547200D02*
X140916400Y-98547200D01*
X142338800Y-102306400D02*
X142338800Y-101493600D01*
X141221200Y-101519000D02*
X141221200Y-102306400D01*
X140967200Y-101493600D02*
X142592800Y-101493600D01*
X142592800Y-101493600D02*
X142592800Y-102306400D01*
X142592800Y-102306400D02*
X140967200Y-102306400D01*
X140967200Y-102306400D02*
X140967200Y-101493600D01*
X140103600Y-104998800D02*
X140916400Y-104998800D01*
X140891000Y-103881200D02*
X140103600Y-103881200D01*
X140916400Y-103627200D02*
X140916400Y-105252800D01*
X140916400Y-105252800D02*
X140103600Y-105252800D01*
X140103600Y-105252800D02*
X140103600Y-103627200D01*
X140103600Y-103627200D02*
X140916400Y-103627200D01*
X142338800Y-107386400D02*
X142338800Y-106573600D01*
X141221200Y-106599000D02*
X141221200Y-107386400D01*
X140967200Y-106573600D02*
X142592800Y-106573600D01*
X142592800Y-106573600D02*
X142592800Y-107386400D01*
X142592800Y-107386400D02*
X140967200Y-107386400D01*
X140967200Y-107386400D02*
X140967200Y-106573600D01*
X140103600Y-110078800D02*
X140916400Y-110078800D01*
X140891000Y-108961200D02*
X140103600Y-108961200D01*
X140916400Y-108707200D02*
X140916400Y-110332800D01*
X140916400Y-110332800D02*
X140103600Y-110332800D01*
X140103600Y-110332800D02*
X140103600Y-108707200D01*
X140103600Y-108707200D02*
X140916400Y-108707200D01*
X142338800Y-112466400D02*
X142338800Y-111653600D01*
X141221200Y-111679000D02*
X141221200Y-112466400D01*
X140967200Y-111653600D02*
X142592800Y-111653600D01*
X142592800Y-111653600D02*
X142592800Y-112466400D01*
X142592800Y-112466400D02*
X140967200Y-112466400D01*
X140967200Y-112466400D02*
X140967200Y-111653600D01*
X140103600Y-115158800D02*
X140916400Y-115158800D01*
X140891000Y-114041200D02*
X140103600Y-114041200D01*
X140916400Y-113787200D02*
X140916400Y-115412800D01*
X140916400Y-115412800D02*
X140103600Y-115412800D01*
X140103600Y-115412800D02*
X140103600Y-113787200D01*
X140103600Y-113787200D02*
X140916400Y-113787200D01*
X142338800Y-117546400D02*
X142338800Y-116733600D01*
X141221200Y-116759000D02*
X141221200Y-117546400D01*
X140967200Y-116733600D02*
X142592800Y-116733600D01*
X142592800Y-116733600D02*
X142592800Y-117546400D01*
X142592800Y-117546400D02*
X140967200Y-117546400D01*
X140967200Y-117546400D02*
X140967200Y-116733600D01*
X138068981Y-120876000D02*
G75*
G03X138068981Y-120876000I-283981J0D01*
G01*
X133340000Y-124686000D02*
X138420000Y-124686000D01*
X138420000Y-124686000D02*
X138420000Y-120114000D01*
X138420000Y-120114000D02*
X133340000Y-120114000D01*
X133340000Y-120114000D02*
X133340000Y-124686000D01*
X140949620Y-123020420D02*
X141950380Y-123020420D01*
X141950380Y-122420980D02*
X140949620Y-122420980D01*
X141350940Y-122720700D02*
X141549060Y-122720700D01*
X141650660Y-122621640D02*
X141249340Y-122621640D01*
X141249340Y-122621640D02*
X141450000Y-122819760D01*
X141450000Y-122819760D02*
X141650660Y-122621640D01*
X141950380Y-121920600D02*
X141950380Y-123520800D01*
X141950380Y-123520800D02*
X140949620Y-123520800D01*
X140949620Y-123520800D02*
X140949620Y-121920600D01*
X140949620Y-121920600D02*
X141950380Y-121920600D01*
X139529620Y-123020420D02*
X140530380Y-123020420D01*
X140530380Y-122420980D02*
X139529620Y-122420980D01*
X139930940Y-122720700D02*
X140129060Y-122720700D01*
X140230660Y-122621640D02*
X139829340Y-122621640D01*
X139829340Y-122621640D02*
X140030000Y-122819760D01*
X140030000Y-122819760D02*
X140230660Y-122621640D01*
X140530380Y-121920600D02*
X140530380Y-123520800D01*
X140530380Y-123520800D02*
X139529620Y-123520800D01*
X139529620Y-123520800D02*
X139529620Y-121920600D01*
X139529620Y-121920600D02*
X140530380Y-121920600D01*
D16*
X142784000Y-102940000D02*
X142016000Y-102940000D01*
X142784000Y-105940000D02*
X145784000Y-105940000D01*
X145784000Y-102940000D02*
X142784000Y-102940000D01*
X142784000Y-108020000D02*
X142016000Y-108020000D01*
X142784000Y-111020000D02*
X145784000Y-111020000D01*
X145784000Y-108020000D02*
X142784000Y-108020000D01*
X142784000Y-113100000D02*
X142016000Y-113100000D01*
X142784000Y-116100000D02*
X145784000Y-116100000D01*
X145784000Y-113100000D02*
X142784000Y-113100000D01*
X152120000Y-96090000D02*
X152120000Y-101170000D01*
X152120000Y-101170000D02*
X154660000Y-101170000D01*
X154660000Y-101170000D02*
X154660000Y-96090000D01*
X154940000Y-93270000D02*
X154940000Y-94820000D01*
X154660000Y-96090000D02*
X152120000Y-96090000D01*
X151840000Y-94820000D02*
X151840000Y-93270000D01*
X151840000Y-93270000D02*
X154940000Y-93270000D01*
D15*
X143617200Y-125443000D02*
X145242800Y-125443000D01*
X145242800Y-123157000D02*
X143617200Y-123157000D01*
X145242800Y-122699800D02*
X143617200Y-122699800D01*
X143617200Y-122699800D02*
X143617200Y-125900200D01*
X143617200Y-125900200D02*
X145242800Y-125900200D01*
X145242800Y-125900200D02*
X145242800Y-122699800D01*
X151107000Y-130298800D02*
X151107000Y-134261200D01*
X151107000Y-134261200D02*
X155933000Y-134261200D01*
X155933000Y-134261200D02*
X155933000Y-130298800D01*
X155933000Y-130298800D02*
X151107000Y-130298800D01*
X151615000Y-130298800D02*
X151615000Y-129206600D01*
X152885000Y-130298800D02*
X152885000Y-129206600D01*
X154155000Y-130298800D02*
X154155000Y-129206600D01*
X155425000Y-129206600D02*
X155425000Y-130298800D01*
X155425000Y-134261200D02*
X155425000Y-135353400D01*
X154155000Y-135353400D02*
X154155000Y-134261200D01*
X152885000Y-135353400D02*
X152885000Y-134261200D01*
X151615000Y-135353400D02*
X151615000Y-134261200D01*
X152316067Y-133524600D02*
G75*
G03X152316067Y-133524600I-472467J0D01*
G01*
D16*
X154970000Y-127410000D02*
X154970000Y-126710000D01*
X156170000Y-126710000D02*
X156170000Y-127410000D01*
X140249100Y-137497460D02*
X148949100Y-137497460D01*
X140249100Y-131092460D02*
X148949100Y-131092460D01*
X148949100Y-131092460D02*
X148949100Y-137497460D01*
X148949100Y-136267460D02*
X140249100Y-136267460D01*
X140249100Y-137497460D02*
X140249100Y-131092460D01*
X142784000Y-97860000D02*
X142016000Y-97860000D01*
X142784000Y-100860000D02*
X145784000Y-100860000D01*
X145784000Y-97860000D02*
X142784000Y-97860000D01*
X134730000Y-127890000D02*
X134030000Y-127890000D01*
X134030000Y-126690000D02*
X134730000Y-126690000D01*
X141000000Y-129960000D02*
X140300000Y-129960000D01*
X140300000Y-128760000D02*
X141000000Y-128760000D01*
D15*
X141043600Y-126146960D02*
X141856400Y-126146960D01*
X141831000Y-125029360D02*
X141043600Y-125029360D01*
X141856400Y-124775360D02*
X141856400Y-126400960D01*
X141856400Y-126400960D02*
X141043600Y-126400960D01*
X141043600Y-126400960D02*
X141043600Y-124775360D01*
X141043600Y-124775360D02*
X141856400Y-124775360D01*
X139623600Y-126146960D02*
X140436400Y-126146960D01*
X140411000Y-125029360D02*
X139623600Y-125029360D01*
X140436400Y-124775360D02*
X140436400Y-126400960D01*
X140436400Y-126400960D02*
X139623600Y-126400960D01*
X139623600Y-126400960D02*
X139623600Y-124775360D01*
X139623600Y-124775360D02*
X140436400Y-124775360D01*
X134800600Y-128675100D02*
X137899400Y-128675100D01*
X137899400Y-128675100D02*
X137899400Y-130465800D01*
X134800600Y-128675100D02*
X134800600Y-130465800D01*
X138242300Y-135964900D02*
X139055100Y-135964900D01*
X139055100Y-135964900D02*
X139055100Y-134174200D01*
X138242300Y-135964900D02*
X138242300Y-134174200D01*
X135943600Y-135964900D02*
X135943600Y-134174200D01*
X136756400Y-135964900D02*
X136756400Y-134174200D01*
X135943600Y-135964900D02*
X136756400Y-135964900D01*
X133644900Y-135964900D02*
X134457700Y-135964900D01*
X134457700Y-135964900D02*
X134457700Y-134174200D01*
X133644900Y-135964900D02*
X133644900Y-134174200D01*
X139702800Y-134174200D02*
X132997200Y-134174200D01*
X132997200Y-134174200D02*
X132997200Y-130465800D01*
X132997200Y-130465800D02*
X139702800Y-130465800D01*
X139702800Y-130465800D02*
X139702800Y-134174200D01*
D14*
X150621200Y-101869180D02*
X150621200Y-120070820D01*
X151019980Y-101869180D02*
X151019980Y-120070820D01*
X156818800Y-120070820D02*
X156818800Y-101869180D01*
X156320960Y-101869180D02*
X156320960Y-120070820D01*
X156320960Y-104670800D02*
X156818800Y-104670800D01*
X156320960Y-107170160D02*
X156818800Y-107170160D01*
X156320960Y-109669520D02*
X156818800Y-109669520D01*
X156320960Y-112273020D02*
X156818800Y-112273020D01*
X156320960Y-114769840D02*
X156818800Y-114769840D01*
X156818800Y-119867620D02*
X156320960Y-119867620D01*
X156320960Y-102072380D02*
X156818800Y-102072380D01*
X156818800Y-117266660D02*
X156320960Y-117266660D01*
X156818800Y-101874260D02*
X150621200Y-101874260D01*
X150621200Y-120065740D02*
X156818800Y-120065740D01*
D15*
X148423600Y-104488800D02*
X149236400Y-104488800D01*
X149211000Y-103371200D02*
X148423600Y-103371200D01*
X149236400Y-103117200D02*
X149236400Y-104742800D01*
X149236400Y-104742800D02*
X148423600Y-104742800D01*
X148423600Y-104742800D02*
X148423600Y-103117200D01*
X148423600Y-103117200D02*
X149236400Y-103117200D01*
D16*
X150960000Y-100400000D02*
X150960000Y-97000000D01*
X150957056Y-100397056D02*
G75*
G02X146860000Y-98700000I-1697056J1697056D01*
G01*
X150957056Y-97002944D02*
G75*
G03X146860000Y-98700000I-1697056J-1697056D01*
G01*
D17*
X154466600Y-123723500D02*
X154466600Y-125323500D01*
X154266600Y-123223500D02*
X154266600Y-125823500D01*
X154066600Y-122823500D02*
X154066600Y-126223500D01*
X154666600Y-124523500D02*
G75*
G03X154666600Y-124523500I-2800000J0D01*
G01*
D12*
X152966600Y-125523500D02*
X152966600Y-126523500D01*
D15*
X148473600Y-108668800D02*
X149286400Y-108668800D01*
X149261000Y-107551200D02*
X148473600Y-107551200D01*
X149286400Y-107297200D02*
X149286400Y-108922800D01*
X149286400Y-108922800D02*
X148473600Y-108922800D01*
X148473600Y-108922800D02*
X148473600Y-107297200D01*
X148473600Y-107297200D02*
X149286400Y-107297200D01*
D13*
X132722381Y-95863333D02*
X133436667Y-95863333D01*
X133579524Y-95910953D01*
X133674762Y-96006191D01*
X133722381Y-96149048D01*
X133722381Y-96244286D01*
X133722381Y-94863333D02*
X133722381Y-95434762D01*
X133722381Y-95149048D02*
X132722381Y-95149048D01*
X132865238Y-95244286D01*
X132960476Y-95339524D01*
X133008095Y-95434762D01*
D18*
X141216664Y-99393443D02*
X141226220Y-99402998D01*
X141235775Y-99431664D01*
X141235775Y-99450774D01*
X141226220Y-99479440D01*
X141207109Y-99498551D01*
X141187999Y-99508106D01*
X141149778Y-99517661D01*
X141121112Y-99517661D01*
X141082891Y-99508106D01*
X141063780Y-99498551D01*
X141044670Y-99479440D01*
X141035115Y-99450774D01*
X141035115Y-99431664D01*
X141044670Y-99402998D01*
X141054225Y-99393443D01*
X141235775Y-99202338D02*
X141235775Y-99317001D01*
X141235775Y-99259670D02*
X141035115Y-99259670D01*
X141063780Y-99278780D01*
X141082891Y-99297891D01*
X141092446Y-99317001D01*
X141746557Y-101336664D02*
X141737002Y-101346220D01*
X141708336Y-101355775D01*
X141689226Y-101355775D01*
X141660560Y-101346220D01*
X141641449Y-101327109D01*
X141631894Y-101307999D01*
X141622339Y-101269778D01*
X141622339Y-101241112D01*
X141631894Y-101202891D01*
X141641449Y-101183780D01*
X141660560Y-101164670D01*
X141689226Y-101155115D01*
X141708336Y-101155115D01*
X141737002Y-101164670D01*
X141746557Y-101174225D01*
X141822999Y-101174225D02*
X141832554Y-101164670D01*
X141851665Y-101155115D01*
X141899441Y-101155115D01*
X141918551Y-101164670D01*
X141928107Y-101174225D01*
X141937662Y-101193336D01*
X141937662Y-101212446D01*
X141928107Y-101241112D01*
X141813444Y-101355775D01*
X141937662Y-101355775D01*
X141216664Y-104473443D02*
X141226220Y-104482998D01*
X141235775Y-104511664D01*
X141235775Y-104530774D01*
X141226220Y-104559440D01*
X141207109Y-104578551D01*
X141187999Y-104588106D01*
X141149778Y-104597661D01*
X141121112Y-104597661D01*
X141082891Y-104588106D01*
X141063780Y-104578551D01*
X141044670Y-104559440D01*
X141035115Y-104530774D01*
X141035115Y-104511664D01*
X141044670Y-104482998D01*
X141054225Y-104473443D01*
X141035115Y-104406556D02*
X141035115Y-104282338D01*
X141111557Y-104349225D01*
X141111557Y-104320559D01*
X141121112Y-104301449D01*
X141130667Y-104291893D01*
X141149778Y-104282338D01*
X141197554Y-104282338D01*
X141216664Y-104291893D01*
X141226220Y-104301449D01*
X141235775Y-104320559D01*
X141235775Y-104377891D01*
X141226220Y-104397001D01*
X141216664Y-104406556D01*
X141746557Y-106416664D02*
X141737002Y-106426220D01*
X141708336Y-106435775D01*
X141689226Y-106435775D01*
X141660560Y-106426220D01*
X141641449Y-106407109D01*
X141631894Y-106387999D01*
X141622339Y-106349778D01*
X141622339Y-106321112D01*
X141631894Y-106282891D01*
X141641449Y-106263780D01*
X141660560Y-106244670D01*
X141689226Y-106235115D01*
X141708336Y-106235115D01*
X141737002Y-106244670D01*
X141746557Y-106254225D01*
X141918551Y-106302001D02*
X141918551Y-106435775D01*
X141870775Y-106225560D02*
X141822999Y-106368888D01*
X141947217Y-106368888D01*
X141216664Y-109553443D02*
X141226220Y-109562998D01*
X141235775Y-109591664D01*
X141235775Y-109610774D01*
X141226220Y-109639440D01*
X141207109Y-109658551D01*
X141187999Y-109668106D01*
X141149778Y-109677661D01*
X141121112Y-109677661D01*
X141082891Y-109668106D01*
X141063780Y-109658551D01*
X141044670Y-109639440D01*
X141035115Y-109610774D01*
X141035115Y-109591664D01*
X141044670Y-109562998D01*
X141054225Y-109553443D01*
X141035115Y-109371893D02*
X141035115Y-109467446D01*
X141130667Y-109477001D01*
X141121112Y-109467446D01*
X141111557Y-109448335D01*
X141111557Y-109400559D01*
X141121112Y-109381449D01*
X141130667Y-109371893D01*
X141149778Y-109362338D01*
X141197554Y-109362338D01*
X141216664Y-109371893D01*
X141226220Y-109381449D01*
X141235775Y-109400559D01*
X141235775Y-109448335D01*
X141226220Y-109467446D01*
X141216664Y-109477001D01*
X141746557Y-111496664D02*
X141737002Y-111506220D01*
X141708336Y-111515775D01*
X141689226Y-111515775D01*
X141660560Y-111506220D01*
X141641449Y-111487109D01*
X141631894Y-111467999D01*
X141622339Y-111429778D01*
X141622339Y-111401112D01*
X141631894Y-111362891D01*
X141641449Y-111343780D01*
X141660560Y-111324670D01*
X141689226Y-111315115D01*
X141708336Y-111315115D01*
X141737002Y-111324670D01*
X141746557Y-111334225D01*
X141918551Y-111315115D02*
X141880330Y-111315115D01*
X141861220Y-111324670D01*
X141851665Y-111334225D01*
X141832554Y-111362891D01*
X141822999Y-111401112D01*
X141822999Y-111477554D01*
X141832554Y-111496664D01*
X141842109Y-111506220D01*
X141861220Y-111515775D01*
X141899441Y-111515775D01*
X141918551Y-111506220D01*
X141928107Y-111496664D01*
X141937662Y-111477554D01*
X141937662Y-111429778D01*
X141928107Y-111410667D01*
X141918551Y-111401112D01*
X141899441Y-111391557D01*
X141861220Y-111391557D01*
X141842109Y-111401112D01*
X141832554Y-111410667D01*
X141822999Y-111429778D01*
X141216664Y-114633443D02*
X141226220Y-114642998D01*
X141235775Y-114671664D01*
X141235775Y-114690774D01*
X141226220Y-114719440D01*
X141207109Y-114738551D01*
X141187999Y-114748106D01*
X141149778Y-114757661D01*
X141121112Y-114757661D01*
X141082891Y-114748106D01*
X141063780Y-114738551D01*
X141044670Y-114719440D01*
X141035115Y-114690774D01*
X141035115Y-114671664D01*
X141044670Y-114642998D01*
X141054225Y-114633443D01*
X141035115Y-114566556D02*
X141035115Y-114432783D01*
X141235775Y-114518780D01*
X141746557Y-116576664D02*
X141737002Y-116586220D01*
X141708336Y-116595775D01*
X141689226Y-116595775D01*
X141660560Y-116586220D01*
X141641449Y-116567109D01*
X141631894Y-116547999D01*
X141622339Y-116509778D01*
X141622339Y-116481112D01*
X141631894Y-116442891D01*
X141641449Y-116423780D01*
X141660560Y-116404670D01*
X141689226Y-116395115D01*
X141708336Y-116395115D01*
X141737002Y-116404670D01*
X141746557Y-116414225D01*
X141861220Y-116481112D02*
X141842109Y-116471557D01*
X141832554Y-116462001D01*
X141822999Y-116442891D01*
X141822999Y-116433336D01*
X141832554Y-116414225D01*
X141842109Y-116404670D01*
X141861220Y-116395115D01*
X141899441Y-116395115D01*
X141918551Y-116404670D01*
X141928107Y-116414225D01*
X141937662Y-116433336D01*
X141937662Y-116442891D01*
X141928107Y-116462001D01*
X141918551Y-116471557D01*
X141899441Y-116481112D01*
X141861220Y-116481112D01*
X141842109Y-116490667D01*
X141832554Y-116500222D01*
X141822999Y-116519333D01*
X141822999Y-116557554D01*
X141832554Y-116576664D01*
X141842109Y-116586220D01*
X141861220Y-116595775D01*
X141899441Y-116595775D01*
X141918551Y-116586220D01*
X141928107Y-116576664D01*
X141937662Y-116557554D01*
X141937662Y-116519333D01*
X141928107Y-116500222D01*
X141918551Y-116490667D01*
X141899441Y-116481112D01*
D19*
X138623702Y-122894322D02*
X139028772Y-122894322D01*
X139076427Y-122870494D01*
X139100255Y-122846667D01*
X139124082Y-122799011D01*
X139124082Y-122703701D01*
X139100255Y-122656046D01*
X139076427Y-122632218D01*
X139028772Y-122608390D01*
X138623702Y-122608390D01*
X138623702Y-122131838D02*
X138623702Y-122370114D01*
X138861979Y-122393942D01*
X138838151Y-122370114D01*
X138814323Y-122322459D01*
X138814323Y-122203321D01*
X138838151Y-122155665D01*
X138861979Y-122131838D01*
X138909634Y-122108010D01*
X139028772Y-122108010D01*
X139076427Y-122131838D01*
X139100255Y-122155665D01*
X139124082Y-122203321D01*
X139124082Y-122322459D01*
X139100255Y-122370114D01*
X139076427Y-122393942D01*
X134259723Y-123769362D02*
X134259723Y-123268982D01*
X134426516Y-123626397D01*
X134593310Y-123268982D01*
X134593310Y-123769362D01*
X135117518Y-123721707D02*
X135093690Y-123745535D01*
X135022207Y-123769362D01*
X134974552Y-123769362D01*
X134903069Y-123745535D01*
X134855414Y-123697880D01*
X134831586Y-123650224D01*
X134807758Y-123554914D01*
X134807758Y-123483431D01*
X134831586Y-123388120D01*
X134855414Y-123340465D01*
X134903069Y-123292810D01*
X134974552Y-123268982D01*
X135022207Y-123268982D01*
X135093690Y-123292810D01*
X135117518Y-123316638D01*
X135331966Y-123769362D02*
X135331966Y-123268982D01*
X135522587Y-123268982D01*
X135570242Y-123292810D01*
X135594070Y-123316638D01*
X135617898Y-123364293D01*
X135617898Y-123435776D01*
X135594070Y-123483431D01*
X135570242Y-123507259D01*
X135522587Y-123531086D01*
X135331966Y-123531086D01*
X135808518Y-123316638D02*
X135832346Y-123292810D01*
X135880001Y-123268982D01*
X135999139Y-123268982D01*
X136046795Y-123292810D01*
X136070622Y-123316638D01*
X136094450Y-123364293D01*
X136094450Y-123411948D01*
X136070622Y-123483431D01*
X135784691Y-123769362D01*
X136094450Y-123769362D01*
X136285070Y-123316638D02*
X136308898Y-123292810D01*
X136356553Y-123268982D01*
X136475691Y-123268982D01*
X136523347Y-123292810D01*
X136547174Y-123316638D01*
X136571002Y-123364293D01*
X136571002Y-123411948D01*
X136547174Y-123483431D01*
X136261243Y-123769362D01*
X136571002Y-123769362D01*
X136761622Y-123316638D02*
X136785450Y-123292810D01*
X136833105Y-123268982D01*
X136952243Y-123268982D01*
X136999899Y-123292810D01*
X137023726Y-123316638D01*
X137047554Y-123364293D01*
X137047554Y-123411948D01*
X137023726Y-123483431D01*
X136737795Y-123769362D01*
X137047554Y-123769362D01*
X137524106Y-123769362D02*
X137238174Y-123769362D01*
X137381140Y-123769362D02*
X137381140Y-123268982D01*
X137333485Y-123340465D01*
X137285830Y-123388120D01*
X137238174Y-123411948D01*
D16*
X145094095Y-106392381D02*
X145665524Y-106392381D01*
X145379809Y-107392381D02*
X145379809Y-106392381D01*
X145903619Y-106392381D02*
X146522667Y-106392381D01*
X146189333Y-106773333D01*
X146332191Y-106773333D01*
X146427429Y-106820952D01*
X146475048Y-106868571D01*
X146522667Y-106963810D01*
X146522667Y-107201905D01*
X146475048Y-107297143D01*
X146427429Y-107344762D01*
X146332191Y-107392381D01*
X146046476Y-107392381D01*
X145951238Y-107344762D01*
X145903619Y-107297143D01*
X145094095Y-111472381D02*
X145665524Y-111472381D01*
X145379809Y-112472381D02*
X145379809Y-111472381D01*
X145951238Y-111567619D02*
X145998857Y-111520000D01*
X146094095Y-111472381D01*
X146332191Y-111472381D01*
X146427429Y-111520000D01*
X146475048Y-111567619D01*
X146522667Y-111662857D01*
X146522667Y-111758095D01*
X146475048Y-111900952D01*
X145903619Y-112472381D01*
X146522667Y-112472381D01*
X145094095Y-116552381D02*
X145665524Y-116552381D01*
X145379809Y-117552381D02*
X145379809Y-116552381D01*
X146522667Y-117552381D02*
X145951238Y-117552381D01*
X146236952Y-117552381D02*
X146236952Y-116552381D01*
X146141714Y-116695238D01*
X146046476Y-116790476D01*
X145951238Y-116838095D01*
D13*
X155011905Y-100996666D02*
X155583333Y-100996666D01*
X155697619Y-101034762D01*
X155773810Y-101110952D01*
X155811905Y-101225238D01*
X155811905Y-101301428D01*
X155011905Y-100691904D02*
X155011905Y-100196666D01*
X155316667Y-100463333D01*
X155316667Y-100349047D01*
X155354762Y-100272857D01*
X155392857Y-100234761D01*
X155469048Y-100196666D01*
X155659524Y-100196666D01*
X155735714Y-100234761D01*
X155773810Y-100272857D01*
X155811905Y-100349047D01*
X155811905Y-100577619D01*
X155773810Y-100653809D01*
X155735714Y-100691904D01*
D20*
X146116362Y-122933396D02*
X145878086Y-123100190D01*
X146116362Y-123219328D02*
X145615982Y-123219328D01*
X145615982Y-123028707D01*
X145639810Y-122981052D01*
X145663638Y-122957224D01*
X145711293Y-122933396D01*
X145782776Y-122933396D01*
X145830431Y-122957224D01*
X145854259Y-122981052D01*
X145878086Y-123028707D01*
X145878086Y-123219328D01*
X145663638Y-122742776D02*
X145639810Y-122718948D01*
X145615982Y-122671293D01*
X145615982Y-122552155D01*
X145639810Y-122504499D01*
X145663638Y-122480672D01*
X145711293Y-122456844D01*
X145758948Y-122456844D01*
X145830431Y-122480672D01*
X146116362Y-122766603D01*
X146116362Y-122456844D01*
D21*
X156259669Y-132900895D02*
X156866245Y-132900895D01*
X156937607Y-132865214D01*
X156973288Y-132829533D01*
X157008969Y-132758171D01*
X157008969Y-132615448D01*
X156973288Y-132544086D01*
X156937607Y-132508405D01*
X156866245Y-132472724D01*
X156259669Y-132472724D01*
X156259669Y-131794786D02*
X156259669Y-131937509D01*
X156295350Y-132008871D01*
X156331031Y-132044552D01*
X156438074Y-132115914D01*
X156580798Y-132151595D01*
X156866245Y-132151595D01*
X156937607Y-132115914D01*
X156973288Y-132080233D01*
X157008969Y-132008871D01*
X157008969Y-131866148D01*
X156973288Y-131794786D01*
X156937607Y-131759105D01*
X156866245Y-131723424D01*
X156687840Y-131723424D01*
X156616479Y-131759105D01*
X156580798Y-131794786D01*
X156545117Y-131866148D01*
X156545117Y-132008871D01*
X156580798Y-132080233D01*
X156616479Y-132115914D01*
X156687840Y-132151595D01*
D16*
X154494286Y-127140000D02*
X154522857Y-127168571D01*
X154551429Y-127254285D01*
X154551429Y-127311428D01*
X154522857Y-127397143D01*
X154465714Y-127454285D01*
X154408571Y-127482857D01*
X154294286Y-127511428D01*
X154208571Y-127511428D01*
X154094286Y-127482857D01*
X154037143Y-127454285D01*
X153980000Y-127397143D01*
X153951429Y-127311428D01*
X153951429Y-127254285D01*
X153980000Y-127168571D01*
X154008571Y-127140000D01*
X154551429Y-126854285D02*
X154551429Y-126740000D01*
X154522857Y-126682857D01*
X154494286Y-126654285D01*
X154408571Y-126597143D01*
X154294286Y-126568571D01*
X154065714Y-126568571D01*
X154008571Y-126597143D01*
X153980000Y-126625714D01*
X153951429Y-126682857D01*
X153951429Y-126797143D01*
X153980000Y-126854285D01*
X154008571Y-126882857D01*
X154065714Y-126911428D01*
X154208571Y-126911428D01*
X154265714Y-126882857D01*
X154294286Y-126854285D01*
X154322857Y-126797143D01*
X154322857Y-126682857D01*
X154294286Y-126625714D01*
X154265714Y-126597143D01*
X154208571Y-126568571D01*
X147291905Y-130682381D02*
X147291905Y-129682381D01*
X147672858Y-129682381D01*
X147768096Y-129730000D01*
X147815715Y-129777619D01*
X147863334Y-129872857D01*
X147863334Y-130015714D01*
X147815715Y-130110952D01*
X147768096Y-130158571D01*
X147672858Y-130206190D01*
X147291905Y-130206190D01*
X148815715Y-130682381D02*
X148244286Y-130682381D01*
X148530000Y-130682381D02*
X148530000Y-129682381D01*
X148434762Y-129825238D01*
X148339524Y-129920476D01*
X148244286Y-129968095D01*
X145094095Y-101312381D02*
X145665524Y-101312381D01*
X145379809Y-102312381D02*
X145379809Y-101312381D01*
X146427429Y-101645714D02*
X146427429Y-102312381D01*
X146189333Y-101264762D02*
X145951238Y-101979048D01*
X146570286Y-101979048D01*
X132964285Y-128754286D02*
X132935714Y-128782857D01*
X132850000Y-128811429D01*
X132792857Y-128811429D01*
X132707142Y-128782857D01*
X132650000Y-128725714D01*
X132621428Y-128668571D01*
X132592857Y-128554286D01*
X132592857Y-128468571D01*
X132621428Y-128354286D01*
X132650000Y-128297143D01*
X132707142Y-128240000D01*
X132792857Y-128211429D01*
X132850000Y-128211429D01*
X132935714Y-128240000D01*
X132964285Y-128268571D01*
X133535714Y-128811429D02*
X133192857Y-128811429D01*
X133364285Y-128811429D02*
X133364285Y-128211429D01*
X133307142Y-128297143D01*
X133250000Y-128354286D01*
X133192857Y-128382857D01*
X134107143Y-128811429D02*
X133764286Y-128811429D01*
X133935714Y-128811429D02*
X133935714Y-128211429D01*
X133878571Y-128297143D01*
X133821429Y-128354286D01*
X133764286Y-128382857D01*
X140264285Y-128124286D02*
X140235714Y-128152857D01*
X140150000Y-128181429D01*
X140092857Y-128181429D01*
X140007142Y-128152857D01*
X139950000Y-128095714D01*
X139921428Y-128038571D01*
X139892857Y-127924286D01*
X139892857Y-127838571D01*
X139921428Y-127724286D01*
X139950000Y-127667143D01*
X140007142Y-127610000D01*
X140092857Y-127581429D01*
X140150000Y-127581429D01*
X140235714Y-127610000D01*
X140264285Y-127638571D01*
X140835714Y-128181429D02*
X140492857Y-128181429D01*
X140664285Y-128181429D02*
X140664285Y-127581429D01*
X140607142Y-127667143D01*
X140550000Y-127724286D01*
X140492857Y-127752857D01*
X141064286Y-127638571D02*
X141092857Y-127610000D01*
X141150000Y-127581429D01*
X141292857Y-127581429D01*
X141350000Y-127610000D01*
X141378571Y-127638571D01*
X141407143Y-127695714D01*
X141407143Y-127752857D01*
X141378571Y-127838571D01*
X141035714Y-128181429D01*
X141407143Y-128181429D01*
D10*
X142736190Y-126333333D02*
X142498095Y-126500000D01*
X142736190Y-126619047D02*
X142236190Y-126619047D01*
X142236190Y-126428571D01*
X142260000Y-126380952D01*
X142283810Y-126357143D01*
X142331429Y-126333333D01*
X142402857Y-126333333D01*
X142450476Y-126357143D01*
X142474286Y-126380952D01*
X142498095Y-126428571D01*
X142498095Y-126619047D01*
X142236190Y-126166666D02*
X142236190Y-125857143D01*
X142426667Y-126023809D01*
X142426667Y-125952381D01*
X142450476Y-125904762D01*
X142474286Y-125880952D01*
X142521905Y-125857143D01*
X142640952Y-125857143D01*
X142688571Y-125880952D01*
X142712381Y-125904762D01*
X142736190Y-125952381D01*
X142736190Y-126095238D01*
X142712381Y-126142857D01*
X142688571Y-126166666D01*
X139236190Y-126323333D02*
X138998095Y-126490000D01*
X139236190Y-126609047D02*
X138736190Y-126609047D01*
X138736190Y-126418571D01*
X138760000Y-126370952D01*
X138783810Y-126347143D01*
X138831429Y-126323333D01*
X138902857Y-126323333D01*
X138950476Y-126347143D01*
X138974286Y-126370952D01*
X138998095Y-126418571D01*
X138998095Y-126609047D01*
X138902857Y-125894762D02*
X139236190Y-125894762D01*
X138712381Y-126013809D02*
X139069524Y-126132857D01*
X139069524Y-125823333D01*
D22*
X135638316Y-130933765D02*
X135638316Y-131743904D01*
X135685971Y-131839214D01*
X135733627Y-131886870D01*
X135828937Y-131934525D01*
X136019558Y-131934525D01*
X136114869Y-131886870D01*
X136162524Y-131839214D01*
X136210179Y-131743904D01*
X136210179Y-130933765D01*
X137210939Y-131934525D02*
X136639076Y-131934525D01*
X136925007Y-131934525D02*
X136925007Y-130933765D01*
X136829697Y-131076730D01*
X136734386Y-131172041D01*
X136639076Y-131219696D01*
D13*
X154122381Y-121373333D02*
X154836667Y-121373333D01*
X154979524Y-121420953D01*
X155074762Y-121516191D01*
X155122381Y-121659048D01*
X155122381Y-121754286D01*
X154217619Y-120944762D02*
X154170000Y-120897143D01*
X154122381Y-120801905D01*
X154122381Y-120563809D01*
X154170000Y-120468571D01*
X154217619Y-120420952D01*
X154312857Y-120373333D01*
X154408095Y-120373333D01*
X154550952Y-120420952D01*
X155122381Y-120992381D01*
X155122381Y-120373333D01*
D10*
X148046190Y-103973333D02*
X147808095Y-104140000D01*
X148046190Y-104259047D02*
X147546190Y-104259047D01*
X147546190Y-104068571D01*
X147570000Y-104020952D01*
X147593810Y-103997143D01*
X147641429Y-103973333D01*
X147712857Y-103973333D01*
X147760476Y-103997143D01*
X147784286Y-104020952D01*
X147808095Y-104068571D01*
X147808095Y-104259047D01*
X147546190Y-103520952D02*
X147546190Y-103759047D01*
X147784286Y-103782857D01*
X147760476Y-103759047D01*
X147736667Y-103711428D01*
X147736667Y-103592381D01*
X147760476Y-103544762D01*
X147784286Y-103520952D01*
X147831905Y-103497143D01*
X147950952Y-103497143D01*
X147998571Y-103520952D01*
X148022381Y-103544762D01*
X148046190Y-103592381D01*
X148046190Y-103711428D01*
X148022381Y-103759047D01*
X147998571Y-103782857D01*
D16*
X151131905Y-99279524D02*
X151779524Y-99279524D01*
X151855714Y-99241429D01*
X151893810Y-99203333D01*
X151931905Y-99127143D01*
X151931905Y-98974762D01*
X151893810Y-98898571D01*
X151855714Y-98860476D01*
X151779524Y-98822381D01*
X151131905Y-98822381D01*
X151208095Y-98479524D02*
X151170000Y-98441429D01*
X151131905Y-98365238D01*
X151131905Y-98174762D01*
X151170000Y-98098572D01*
X151208095Y-98060476D01*
X151284286Y-98022381D01*
X151360476Y-98022381D01*
X151474762Y-98060476D01*
X151931905Y-98517619D01*
X151931905Y-98022381D01*
D13*
X155775714Y-124794286D02*
X155813810Y-124832381D01*
X155851905Y-124946667D01*
X155851905Y-125022857D01*
X155813810Y-125137143D01*
X155737619Y-125213334D01*
X155661429Y-125251429D01*
X155509048Y-125289524D01*
X155394762Y-125289524D01*
X155242381Y-125251429D01*
X155166190Y-125213334D01*
X155090000Y-125137143D01*
X155051905Y-125022857D01*
X155051905Y-124946667D01*
X155090000Y-124832381D01*
X155128095Y-124794286D01*
X155851905Y-124032381D02*
X155851905Y-124489524D01*
X155851905Y-124260953D02*
X155051905Y-124260953D01*
X155166190Y-124337143D01*
X155242381Y-124413334D01*
X155280476Y-124489524D01*
X155051905Y-123537143D02*
X155051905Y-123460952D01*
X155090000Y-123384762D01*
X155128095Y-123346667D01*
X155204286Y-123308571D01*
X155356667Y-123270476D01*
X155547143Y-123270476D01*
X155699524Y-123308571D01*
X155775714Y-123346667D01*
X155813810Y-123384762D01*
X155851905Y-123460952D01*
X155851905Y-123537143D01*
X155813810Y-123613333D01*
X155775714Y-123651429D01*
X155699524Y-123689524D01*
X155547143Y-123727619D01*
X155356667Y-123727619D01*
X155204286Y-123689524D01*
X155128095Y-123651429D01*
X155090000Y-123613333D01*
X155051905Y-123537143D01*
D10*
X148116190Y-108193333D02*
X147878095Y-108360000D01*
X148116190Y-108479047D02*
X147616190Y-108479047D01*
X147616190Y-108288571D01*
X147640000Y-108240952D01*
X147663810Y-108217143D01*
X147711429Y-108193333D01*
X147782857Y-108193333D01*
X147830476Y-108217143D01*
X147854286Y-108240952D01*
X147878095Y-108288571D01*
X147878095Y-108479047D01*
X148116190Y-107717143D02*
X148116190Y-108002857D01*
X148116190Y-107860000D02*
X147616190Y-107860000D01*
X147687619Y-107907619D01*
X147735238Y-107955238D01*
X147759048Y-108002857D01*
M02*
