G04 #@! TF.FileFunction,Soldermask,Top*
%FSLAX46Y46*%
G04 Gerber Fmt 4.6, Leading zero omitted, Abs format (unit mm)*
G04 Created by KiCad (PCBNEW 4.0.4-stable) date 11/10/16 15:29:45*
%MOMM*%
%LPD*%
G01*
G04 APERTURE LIST*
%ADD10C,0.100000*%
%ADD11O,2.398980X2.398980*%
%ADD12R,2.398980X2.398980*%
%ADD13R,1.400760X1.299160*%
%ADD14R,2.127200X2.432000*%
%ADD15O,2.127200X2.432000*%
%ADD16R,1.299160X1.400760*%
%ADD17R,0.819100X1.870660*%
%ADD18R,1.197560X1.197560*%
%ADD19R,0.810000X0.320000*%
%ADD20R,2.620000X2.320000*%
%ADD21R,2.432000X2.127200*%
%ADD22O,2.432000X2.127200*%
%ADD23R,2.203400X2.000200*%
%ADD24R,1.035000X1.670000*%
%ADD25R,5.290000X3.340000*%
%ADD26C,0.800000*%
%ADD27R,1.150000X1.200000*%
%ADD28R,0.800000X1.750000*%
%ADD29O,1.650000X1.350000*%
%ADD30O,1.400000X1.950000*%
%ADD31C,3.400000*%
%ADD32R,1.200000X1.150000*%
%ADD33R,1.700480X2.200860*%
%ADD34R,4.199840X2.200860*%
%ADD35O,1.901140X1.299160*%
%ADD36R,1.900000X1.900000*%
%ADD37C,1.900000*%
G04 APERTURE END LIST*
D10*
D11*
X135811000Y-108250000D03*
D12*
X135811000Y-115870000D03*
D11*
X135811000Y-113330000D03*
X135811000Y-110790000D03*
X135811000Y-105710000D03*
X135811000Y-103170000D03*
X135811000Y-100630000D03*
X135811000Y-98090000D03*
D13*
X148880000Y-108861840D03*
X148880000Y-107358160D03*
D14*
X149654000Y-94661000D03*
D15*
X147114000Y-94661000D03*
X144574000Y-94661000D03*
X142034000Y-94661000D03*
X139494000Y-94661000D03*
D13*
X140510000Y-100111840D03*
X140510000Y-98608160D03*
D16*
X142531840Y-101900000D03*
X141028160Y-101900000D03*
D13*
X140510000Y-105191840D03*
X140510000Y-103688160D03*
D16*
X142531840Y-106980000D03*
X141028160Y-106980000D03*
D13*
X140510000Y-110271840D03*
X140510000Y-108768160D03*
D16*
X142531840Y-112060000D03*
X141028160Y-112060000D03*
D13*
X140510000Y-115351840D03*
X140510000Y-113848160D03*
D16*
X142531840Y-117140000D03*
X141028160Y-117140000D03*
D17*
X135880000Y-119600920D03*
X135229760Y-119600920D03*
X134579520Y-119600920D03*
X133929280Y-119600920D03*
X133929280Y-125199080D03*
X137830720Y-119600920D03*
X137180480Y-119600920D03*
X136530240Y-119600920D03*
X134579520Y-125199080D03*
X135229760Y-125199080D03*
X135880000Y-125199080D03*
X136530240Y-125199080D03*
X137180480Y-125199080D03*
X137830720Y-125199080D03*
D18*
X141450000Y-121971400D03*
X141450000Y-123470000D03*
X140030000Y-121971400D03*
X140030000Y-123470000D03*
D19*
X142400000Y-103440000D03*
X142400000Y-103940000D03*
X142400000Y-104440000D03*
X142400000Y-104940000D03*
X142400000Y-105440000D03*
X146240000Y-103440000D03*
X146240000Y-103940000D03*
X146240000Y-104440000D03*
X146240000Y-104940000D03*
X146240000Y-105440000D03*
D20*
X144320000Y-104440000D03*
D19*
X142400000Y-108520000D03*
X142400000Y-109020000D03*
X142400000Y-109520000D03*
X142400000Y-110020000D03*
X142400000Y-110520000D03*
X146240000Y-108520000D03*
X146240000Y-109020000D03*
X146240000Y-109520000D03*
X146240000Y-110020000D03*
X146240000Y-110520000D03*
D20*
X144320000Y-109520000D03*
D19*
X142400000Y-113600000D03*
X142400000Y-114100000D03*
X142400000Y-114600000D03*
X142400000Y-115100000D03*
X142400000Y-115600000D03*
X146240000Y-113600000D03*
X146240000Y-114100000D03*
X146240000Y-114600000D03*
X146240000Y-115100000D03*
X146240000Y-115600000D03*
D20*
X144320000Y-114600000D03*
D21*
X153390000Y-94820000D03*
D22*
X153390000Y-97360000D03*
X153390000Y-99900000D03*
D23*
X144430000Y-125697000D03*
X144430000Y-122903000D03*
D24*
X151615000Y-135074000D03*
X152885000Y-135074000D03*
X154155000Y-135074000D03*
X155425000Y-135074000D03*
X155425000Y-129486000D03*
X154155000Y-129486000D03*
X152885000Y-129486000D03*
X151615000Y-129486000D03*
D25*
X153520000Y-132280000D03*
D26*
X155020000Y-131530000D03*
X153520000Y-131530000D03*
X155020000Y-133030000D03*
X153520000Y-133030000D03*
X152020000Y-131530000D03*
X152020000Y-133030000D03*
D27*
X155570000Y-127810000D03*
X155570000Y-126310000D03*
D28*
X143299100Y-132117460D03*
X143949100Y-132117460D03*
X144599100Y-132117460D03*
X145249100Y-132117460D03*
X145899100Y-132117460D03*
D29*
X142099100Y-132117460D03*
X147099100Y-132117460D03*
D30*
X141099100Y-134817460D03*
X148099100Y-134817460D03*
D19*
X142400000Y-98360000D03*
X142400000Y-98860000D03*
X142400000Y-99360000D03*
X142400000Y-99860000D03*
X142400000Y-100360000D03*
X146240000Y-98360000D03*
X146240000Y-98860000D03*
X146240000Y-99360000D03*
X146240000Y-99860000D03*
X146240000Y-100360000D03*
D20*
X144320000Y-99360000D03*
D31*
X130000000Y-90000000D03*
X130000000Y-140000000D03*
X160000000Y-140000000D03*
X160000000Y-90000000D03*
D32*
X135130000Y-127290000D03*
X133630000Y-127290000D03*
X141400000Y-129360000D03*
X139900000Y-129360000D03*
D13*
X141450000Y-126340000D03*
X141450000Y-124836320D03*
X140030000Y-126340000D03*
X140030000Y-124836320D03*
D33*
X134048760Y-135319740D03*
X136350000Y-135319740D03*
X138651240Y-135319740D03*
D34*
X136350000Y-129320260D03*
D11*
X153720000Y-110970000D03*
D12*
X153720000Y-103350000D03*
D11*
X153720000Y-105890000D03*
X153720000Y-108430000D03*
X153720000Y-113510000D03*
X153720000Y-116050000D03*
X153720000Y-118590000D03*
D13*
X148830000Y-104681840D03*
X148830000Y-103178160D03*
D35*
X149260000Y-98700000D03*
X149260000Y-97430000D03*
X149260000Y-99970000D03*
D36*
X150866600Y-124523500D03*
D37*
X152866600Y-124523500D03*
M02*
