G04 #@! TF.FileFunction,Paste,Top*
%FSLAX46Y46*%
G04 Gerber Fmt 4.6, Leading zero omitted, Abs format (unit mm)*
G04 Created by KiCad (PCBNEW 4.0.4-stable) date 11/10/16 21:54:05*
%MOMM*%
%LPD*%
G01*
G04 APERTURE LIST*
%ADD10C,0.100000*%
%ADD11C,0.010000*%
%ADD12R,0.860760X0.759160*%
%ADD13R,0.759160X0.860760*%
%ADD14R,0.279100X1.330660*%
%ADD15R,0.657560X0.657560*%
%ADD16R,0.690000X0.200000*%
%ADD17R,2.500000X2.200000*%
%ADD18R,1.663400X1.460200*%
%ADD19R,0.495000X1.130000*%
%ADD20R,4.750000X2.800000*%
%ADD21R,0.610000X0.660000*%
%ADD22R,0.260000X1.210000*%
%ADD23C,2.552000*%
%ADD24R,0.660000X0.610000*%
%ADD25R,1.160480X1.660860*%
%ADD26R,3.659840X1.660860*%
G04 APERTURE END LIST*
D10*
D11*
X131275000Y-90000000D02*
G75*
G03X131275000Y-90000000I-1275000J0D01*
G01*
X131275000Y-140000000D02*
G75*
G03X131275000Y-140000000I-1275000J0D01*
G01*
X161275000Y-140000000D02*
G75*
G03X161275000Y-140000000I-1275000J0D01*
G01*
X161275000Y-90000000D02*
G75*
G03X161275000Y-90000000I-1275000J0D01*
G01*
D12*
X140510000Y-100111840D03*
X140510000Y-98608160D03*
D13*
X142531840Y-101900000D03*
X141028160Y-101900000D03*
D12*
X140510000Y-105191840D03*
X140510000Y-103688160D03*
D13*
X142531840Y-106980000D03*
X141028160Y-106980000D03*
D12*
X140510000Y-110271840D03*
X140510000Y-108768160D03*
D13*
X142531840Y-112060000D03*
X141028160Y-112060000D03*
D12*
X140510000Y-115351840D03*
X140510000Y-113848160D03*
D13*
X142531840Y-117140000D03*
X141028160Y-117140000D03*
D14*
X135880000Y-119600920D03*
X135229760Y-119600920D03*
X134579520Y-119600920D03*
X133929280Y-119600920D03*
X133929280Y-125199080D03*
X137830720Y-119600920D03*
X137180480Y-119600920D03*
X136530240Y-119600920D03*
X134579520Y-125199080D03*
X135229760Y-125199080D03*
X135880000Y-125199080D03*
X136530240Y-125199080D03*
X137180480Y-125199080D03*
X137830720Y-125199080D03*
D15*
X141450000Y-121971400D03*
X141450000Y-123470000D03*
X140030000Y-121971400D03*
X140030000Y-123470000D03*
D16*
X142400000Y-103440000D03*
X142400000Y-103940000D03*
X142400000Y-104440000D03*
X142400000Y-104940000D03*
X142400000Y-105440000D03*
X146240000Y-103440000D03*
X146240000Y-103940000D03*
X146240000Y-104440000D03*
X146240000Y-104940000D03*
X146240000Y-105440000D03*
D17*
X144320000Y-104440000D03*
D16*
X142400000Y-108520000D03*
X142400000Y-109020000D03*
X142400000Y-109520000D03*
X142400000Y-110020000D03*
X142400000Y-110520000D03*
X146240000Y-108520000D03*
X146240000Y-109020000D03*
X146240000Y-109520000D03*
X146240000Y-110020000D03*
X146240000Y-110520000D03*
D17*
X144320000Y-109520000D03*
D16*
X142400000Y-113600000D03*
X142400000Y-114100000D03*
X142400000Y-114600000D03*
X142400000Y-115100000D03*
X142400000Y-115600000D03*
X146240000Y-113600000D03*
X146240000Y-114100000D03*
X146240000Y-114600000D03*
X146240000Y-115100000D03*
X146240000Y-115600000D03*
D17*
X144320000Y-114600000D03*
D18*
X144430000Y-125697000D03*
X144430000Y-122903000D03*
D19*
X151615000Y-135074000D03*
X152885000Y-135074000D03*
X154155000Y-135074000D03*
X155425000Y-135074000D03*
X155425000Y-129486000D03*
X154155000Y-129486000D03*
X152885000Y-129486000D03*
X151615000Y-129486000D03*
D20*
X153520000Y-132280000D03*
D21*
X155570000Y-127810000D03*
X155570000Y-126310000D03*
D22*
X143299100Y-132117460D03*
X143949100Y-132117460D03*
X144599100Y-132117460D03*
X145249100Y-132117460D03*
X145899100Y-132117460D03*
D16*
X142400000Y-98360000D03*
X142400000Y-98860000D03*
X142400000Y-99360000D03*
X142400000Y-99860000D03*
X142400000Y-100360000D03*
X146240000Y-98360000D03*
X146240000Y-98860000D03*
X146240000Y-99360000D03*
X146240000Y-99860000D03*
X146240000Y-100360000D03*
D17*
X144320000Y-99360000D03*
D23*
X130000000Y-90000000D03*
X130000000Y-140000000D03*
X160000000Y-140000000D03*
X160000000Y-90000000D03*
D24*
X135130000Y-127290000D03*
X133630000Y-127290000D03*
X141400000Y-129360000D03*
X139900000Y-129360000D03*
D12*
X141450000Y-126340000D03*
X141450000Y-124836320D03*
X140030000Y-126340000D03*
X140030000Y-124836320D03*
D25*
X134048760Y-135319740D03*
X136350000Y-135319740D03*
X138651240Y-135319740D03*
D26*
X136350000Y-129320260D03*
D12*
X148830000Y-104681840D03*
X148830000Y-103178160D03*
X148880000Y-108861840D03*
X148880000Y-107358160D03*
M02*
