G04 #@! TF.FileFunction,Soldermask,Bot*
%FSLAX46Y46*%
G04 Gerber Fmt 4.6, Leading zero omitted, Abs format (unit mm)*
G04 Created by KiCad (PCBNEW 4.0.4-stable) date 11/10/16 15:29:45*
%MOMM*%
%LPD*%
G01*
G04 APERTURE LIST*
%ADD10C,0.100000*%
%ADD11O,2.398980X2.398980*%
%ADD12R,2.398980X2.398980*%
%ADD13R,2.127200X2.432000*%
%ADD14O,2.127200X2.432000*%
%ADD15R,2.432000X2.127200*%
%ADD16O,2.432000X2.127200*%
%ADD17C,0.800000*%
%ADD18O,1.650000X1.350000*%
%ADD19O,1.400000X1.950000*%
%ADD20C,3.400000*%
%ADD21O,1.901140X1.299160*%
%ADD22R,1.900000X1.900000*%
%ADD23C,1.900000*%
G04 APERTURE END LIST*
D10*
D11*
X135811000Y-108250000D03*
D12*
X135811000Y-115870000D03*
D11*
X135811000Y-113330000D03*
X135811000Y-110790000D03*
X135811000Y-105710000D03*
X135811000Y-103170000D03*
X135811000Y-100630000D03*
X135811000Y-98090000D03*
D13*
X149654000Y-94661000D03*
D14*
X147114000Y-94661000D03*
X144574000Y-94661000D03*
X142034000Y-94661000D03*
X139494000Y-94661000D03*
D15*
X153390000Y-94820000D03*
D16*
X153390000Y-97360000D03*
X153390000Y-99900000D03*
D17*
X155020000Y-131530000D03*
X153520000Y-131530000D03*
X155020000Y-133030000D03*
X153520000Y-133030000D03*
X152020000Y-131530000D03*
X152020000Y-133030000D03*
D18*
X142099100Y-132117460D03*
X147099100Y-132117460D03*
D19*
X141099100Y-134817460D03*
X148099100Y-134817460D03*
D20*
X130000000Y-90000000D03*
X130000000Y-140000000D03*
X160000000Y-140000000D03*
X160000000Y-90000000D03*
D11*
X153720000Y-110970000D03*
D12*
X153720000Y-103350000D03*
D11*
X153720000Y-105890000D03*
X153720000Y-108430000D03*
X153720000Y-113510000D03*
X153720000Y-116050000D03*
X153720000Y-118590000D03*
D21*
X149260000Y-98700000D03*
X149260000Y-97430000D03*
X149260000Y-99970000D03*
D22*
X150866600Y-124523500D03*
D23*
X152866600Y-124523500D03*
M02*
